<?xml version="1.0" encoding="UTF-8" standalone="no"?>
<!DOCTYPE svg PUBLIC "-//W3C//DTD SVG 1.1//EN" "http://www.w3.org/Graphics/SVG/1.1/DTD/svg11.dtd">
<svg version="1.1" xmlns="http://www.w3.org/2000/svg" xmlns:xlink="http://www.w3.org/1999/xlink" preserveAspectRatio="xMidYMid meet" viewBox="0 0 640 640" width="640" height="640"><defs><path d="M365.28 73.15L365.9 73.42L366.53 73.69L367.15 73.96L367.8 74.22L368.44 74.49L369.1 74.75L369.75 75L370.4 75.27L372.39 76.03L373.06 76.27L373.73 76.53L374.4 76.77L375.07 77.01L375.74 77.25L376.41 77.49L377.08 77.72L377.76 77.94L378.42 78.18L379.75 78.62L380.43 78.83L381.08 79.04L381.74 79.25L382.39 79.45L383.05 79.64L383.7 79.84L384.34 80.03L385.61 80.4L386.24 80.58L387.47 80.91L388.66 81.22L389.26 81.37L389.84 81.51L390.42 81.66L390.94 81.76L391.47 81.87L392.01 81.98L392.56 82.1L393.68 82.36L394.25 82.49L394.82 82.62L395.98 82.9L396.57 83.05L397.75 83.34L400.68 84.1L401.84 84.43L402.42 84.58L402.98 84.75L403.56 84.91L404.12 85.07L404.66 85.23L405.21 85.38L405.75 85.54L406.28 85.71L406.8 85.86L407.31 86.02L407.82 86.16L408.31 86.32L408.78 86.48L409.25 86.62L409.7 86.77L410.13 86.91L410.56 87.05L410.97 87.18L411.36 87.32L411.74 87.45L420.53 90.66L426.55 103.16L427.01 104.09L427.44 104.96L427.86 105.8L428.26 106.59L428.65 107.37L429.03 108.09L429.4 108.79L429.75 109.45L430.1 110.09L430.46 110.69L430.81 111.27L431.16 111.83L431.5 112.36L431.85 112.88L432.21 113.38L432.57 113.85L432.95 114.32L433.32 114.77L433.71 115.21L434.12 115.64L434.54 116.05L434.97 116.47L435.43 116.88L435.91 117.28L436.41 117.69L436.94 118.09L437.49 118.51L438.07 118.92L438.67 119.33L439.32 119.77L439.99 120.21L440.7 120.65L441.44 121.11L442.22 121.59L443.04 122.07L443.91 122.58L444.81 123.12L445.77 123.67L446.78 124.26L447.83 124.85L448.85 125.45L449.83 126.01L450.75 126.57L451.64 127.1L452.48 127.63L453.29 128.15L454.07 128.65L454.8 129.15L455.51 129.66L456.18 130.17L456.82 130.68L457.44 131.21L458.04 131.74L458.61 132.3L459.17 132.88L459.7 133.48L460.23 134.1L460.73 134.76L461.21 135.45L461.7 136.17L462.18 136.93L462.65 137.73L463.11 138.59L463.58 139.48L464.04 140.44L464.51 141.44L464.98 142.5L465.46 143.63L465.95 144.82L466.45 146.08L466.95 147.4L467.47 148.81L468.01 150.3L468.58 151.85L469.16 153.5L469.76 155.23L470.4 157.06L471.04 158.98L471.73 160.99L472.44 163.11L472.63 163.64L472.83 164.18L473.04 164.73L473.26 165.29L473.48 165.85L473.71 166.43L473.97 167.01L474.21 167.61L474.47 168.21L475.02 169.44L475.3 170.06L475.9 171.31L476.2 171.95L476.52 172.59L476.84 173.23L477.17 173.88L477.84 175.19L478.19 175.83L478.87 177.15L479.23 177.8L479.6 178.46L479.96 179.11L480.7 180.42L481.08 181.07L481.45 181.72L481.84 182.36L482.22 183.01L482.61 183.65L482.99 184.27L483.78 185.53L484.17 186.14L485.34 187.95L485.93 188.8L486.49 189.61L487.03 190.39L487.55 191.15L488.04 191.88L488.51 192.58L488.95 193.26L489.38 193.91L489.78 194.54L490.17 195.16L490.54 195.75L490.88 196.32L491.21 196.88L491.52 197.43L491.82 197.96L492.09 198.47L492.35 198.98L492.59 199.48L492.82 199.97L493.04 200.45L493.24 200.93L493.43 201.4L493.61 201.87L493.77 202.34L494.08 203.29L494.21 203.76L494.33 204.25L494.56 205.22L494.66 205.73L494.75 206.24L494.84 206.76L494.92 207.31L495 207.85L495.13 209L495.2 209.61L495.32 210.88L495.4 211.88L495.46 212.9L495.52 213.95L495.55 215L495.58 216.06L495.59 217.15L495.59 218.25L495.58 219.35L495.52 221.62L495.47 222.79L495.4 223.95L495.33 225.13L495.14 227.55L495.03 228.77L494.9 230.01L494.77 231.26L494.62 232.53L494.46 233.8L494.29 235.09L494.1 236.39L493.91 237.7L493.7 239.03L493.47 240.36L493.24 241.7L493 243.06L492.74 244.42L492.47 245.81L492.19 247.2L491.9 248.6L491.59 250.01L491.28 251.43L490.6 254.3L490.25 255.75L489.89 257.22L489.51 258.68L488.73 261.65L484.12 278.19L474.54 289.47L473.9 290.22L473.29 290.94L472.72 291.63L472.15 292.3L471.62 292.94L471.12 293.56L470.62 294.16L470.16 294.75L469.71 295.32L469.29 295.86L468.88 296.4L468.49 296.91L468.13 297.43L467.77 297.94L467.43 298.43L467.1 298.91L466.79 299.4L466.49 299.88L466.2 300.36L465.92 300.84L465.66 301.32L465.14 302.29L464.89 302.79L464.66 303.3L464.42 303.8L463.96 304.87L463.73 305.43L463.5 305.99L463.04 307.19L462.81 307.82L462.59 308.47L462.35 309.15L462.11 309.84L461.86 310.57L461.61 311.33L461.34 312.12L461.07 312.94L460.72 314.12L460.37 315.3L460.05 316.49L459.74 317.69L459.44 318.91L459.16 320.13L458.89 321.37L458.64 322.64L458.4 323.92L458.18 325.23L457.97 326.56L457.79 327.91L457.6 329.29L457.44 330.71L457.3 332.15L457.17 333.64L457.05 335.15L456.94 336.7L456.86 338.3L456.78 339.94L456.73 341.61L456.68 343.34L456.65 345.12L456.63 346.94L456.63 348.81L456.64 350.74L456.67 352.72L456.71 354.76L456.76 356.86L456.84 359.03L456.92 361.24L457.02 363.54L457.13 365.9L457.26 368.32L457.4 370.81L457.55 373.39L457.71 376.03L457.9 378.75L458.09 381.56L458.3 384.43L458.65 389.23L458.98 393.8L459.28 398.17L459.56 402.33L459.81 406.31L460.02 410.11L460.21 413.74L460.36 417.19L460.48 420.49L460.56 423.65L460.6 426.66L460.61 429.55L460.56 432.31L460.48 434.96L460.36 437.51L460.18 439.96L459.96 442.31L459.69 444.59L459.37 446.81L459 448.95L458.56 451.05L458.08 453.09L457.53 455.11L456.94 457.09L456.27 459.05L455.54 461L454.76 462.96L453.9 464.91L452.97 466.88L451.98 468.88L450.92 470.9L449.78 472.97L448.56 475.09L447.27 477.26L445.91 479.49L444.47 481.8L442.94 484.2L441.34 486.68L439.64 489.26L437.87 491.96L436.59 493.89L435.38 495.74L434.22 497.53L433.12 499.25L432.08 500.9L431.1 502.51L430.17 504.05L429.29 505.55L428.46 507.01L427.69 508.42L426.96 509.8L426.29 511.15L425.65 512.49L425.07 513.79L424.54 515.08L424.05 516.36L423.6 517.63L423.18 518.89L422.83 520.16L422.49 521.44L422.21 522.73L421.96 524.04L421.74 525.36L421.57 526.71L421.42 528.09L421.31 529.49L421.23 530.94L421.18 532.44L421.17 533.97L421.18 535.57L421.21 537.22L421.27 538.92L421.37 540.69L421.49 542.54L421.62 544.45L421.78 546.46L421.96 548.54L422.16 550.7L422.38 552.97L422.62 555.33L422.71 556.38L422.81 557.42L422.9 558.45L422.99 559.47L423.06 560.48L423.15 561.48L423.23 562.47L423.3 563.44L423.37 564.4L423.45 565.34L423.51 566.28L423.58 567.2L423.63 568.09L423.69 568.96L423.74 569.81L423.79 570.66L423.83 571.47L423.88 572.26L423.92 573.03L423.95 573.79L423.97 574.5L424 575.2L424.02 575.87L424.04 576.51L424.05 577.12L424.07 577.71L424.07 578.26L424.07 578.79L424.06 579.27L424.05 579.74L424.04 580.16L424.03 580.55L424 580.91L423.97 581.22L423.95 581.51L423.9 581.74L423.87 581.96L423.82 582.12L423.77 582.24L423.7 582.32L423.66 582.39L423.58 582.46L423.5 582.53L423.41 582.6L423.3 582.68L423.18 582.76L423.05 582.85L422.91 582.93L422.76 583.01L422.59 583.1L422.42 583.19L422.03 583.38L421.62 583.56L421.4 583.67L421.16 583.76L420.92 583.86L420.67 583.97L420.42 584.06L420.16 584.16L419.88 584.26L419.6 584.37L419.33 584.46L418.74 584.67L418.44 584.77L418.13 584.86L417.83 584.96L417.51 585.07L417.19 585.16L416.87 585.26L416.55 585.35L416.21 585.45L415.88 585.54L415.54 585.64L415.21 585.73L414.87 585.81L414.53 585.91L414.19 585.99L413.65 586.13L413.12 586.26L412.63 586.38L412.15 586.51L411.71 586.61L411.27 586.72L410.86 586.81L410.48 586.91L410.12 586.98L409.77 587.06L409.45 587.12L409.14 587.18L408.58 587.27L408.33 587.3L408.09 587.33L407.87 587.35L407.66 587.35L407.48 587.35L407.31 587.35L406.99 587.3L406.86 587.26L406.74 587.21L406.63 587.16L406.53 587.1L406.44 587.03L406.36 586.95L406.3 586.86L406.19 586.65L406.11 586.41L406.08 586.27L406.07 586.13L406.04 585.97L406.03 585.63L406.03 585.25L406.05 585.11L406.06 584.93L406.06 584.73L406.06 584.48L406.07 584.21L406.07 583.9L406.07 583.56L406.08 583.17L406.08 582.77L406.08 582.33L406.08 581.86L406.08 581.36L406.09 580.84L406.09 580.29L406.08 579.71L406.09 579.11L406.08 578.48L406.07 577.84L406.07 577.15L406.06 576.46L406.06 575.74L406.06 575.01L406.05 574.26L406.05 573.48L406.04 572.69L406.04 571.88L406.03 571.06L406.04 570.22L406.03 569.37L406.03 568.5L406.01 566.73L406 565.82L406.01 564.92L406 563.99L406 563.06L405.99 562.13L405.98 561.18L405.99 560.24L405.98 559.28L405.94 556.06L405.92 552.94L405.91 549.94L405.92 547.04L405.94 544.25L405.97 541.55L406.02 538.94L406.09 536.41L406.18 533.98L406.28 531.61L406.4 529.32L406.55 527.1L406.72 524.94L406.91 522.84L407.13 520.8L407.37 518.82L407.63 516.86L407.92 514.96L408.24 513.09L408.59 511.25L408.96 509.45L409.36 507.65L409.8 505.89L410.26 504.13L410.76 502.39L411.29 500.64L411.86 498.91L412.46 497.16L413.1 495.4L413.77 493.65L414.48 491.85L415.22 490.05L416.01 488.21L416.85 486.35L417.72 484.44L418.63 482.5L419.59 480.5L420.59 478.46L421.63 476.37L422.73 474.21L423.55 472.55L424.39 470.88L425.21 469.2L426.01 467.51L426.82 465.8L427.62 464.09L428.42 462.36L429.2 460.65L429.97 458.92L430.72 457.2L431.47 455.47L432.2 453.75L432.92 452.03L433.64 450.33L434.33 448.62L435.01 446.94L435.68 445.26L436.95 441.95L437.56 440.32L438.15 438.71L438.73 437.13L439.29 435.57L439.82 434.03L440.33 432.52L440.83 431.03L441.3 429.59L441.75 428.17L442.17 426.79L442.57 425.44L442.94 424.13L443.29 422.86L443.61 421.63L443.9 420.44L444.17 419.3L444.41 418.21L444.62 417.17L444.79 416.19L444.94 415.24L445.07 414.36L445.18 413.23L445.27 412.09L445.35 410.92L445.42 409.74L445.47 408.55L445.5 407.34L445.52 406.13L445.52 404.9L445.51 403.65L445.49 402.41L445.44 401.16L445.39 399.89L445.32 398.62L445.23 397.35L445.14 396.07L445.02 394.8L444.89 393.51L444.75 392.22L444.59 390.93L444.43 389.65L444.24 388.37L444.04 387.08L443.83 385.8L443.6 384.53L443.36 383.26L443.1 381.99L442.85 380.73L442.27 378.25L441.97 377.02L441.65 375.8L441.32 374.58L440.97 373.39L440.62 372.2L440.24 371.03L439.87 369.87L439.48 368.74L439.07 367.62L438.66 366.52L438.23 365.43L433.02 352.45L427.02 367.65L426.61 368.66L426.22 369.62L425.85 370.55L425.5 371.41L425.16 372.24L424.84 373.01L424.53 373.74L424.24 374.44L423.97 375.09L423.7 375.69L423.46 376.25L423.23 376.78L423.01 377.26L422.8 377.71L422.62 378.12L422.44 378.49L422.27 378.82L422.12 379.12L421.97 379.38L421.84 379.61L421.72 379.8L421.61 379.96L421.49 380.1L421.4 380.19L421.31 380.25L421.23 380.28L421.16 380.29L421.1 380.26L421.03 380.21L420.98 380.13L420.94 380.02L420.89 379.89L420.86 379.73L420.82 379.54L420.79 379.34L420.77 379.1L420.74 378.85L420.72 378.57L420.7 378.27L420.68 377.96L420.68 377.73L420.69 377.48L420.71 377.22L420.74 376.9L420.78 376.58L420.82 376.23L420.87 375.84L420.94 375.45L421.01 375.02L421.08 374.58L421.17 374.11L421.26 373.62L421.36 373.11L421.46 372.57L421.57 372.03L421.69 371.47L421.82 370.88L422.09 369.67L422.39 368.4L422.55 367.75L422.71 367.08L422.87 366.39L423.05 365.71L423.23 365.01L423.42 364.3L423.6 363.58L423.99 362.13L424.19 361.38L424.39 360.65L424.6 359.89L424.81 359.14L425.25 357.63L425.47 356.87L425.7 356.11L425.92 355.35L426.15 354.59L426.52 353.34L426.89 352.13L427.23 350.97L427.56 349.86L427.86 348.8L428.16 347.78L428.44 346.8L428.7 345.85L428.94 344.94L429.17 344.06L429.38 343.21L429.59 342.39L429.78 341.59L429.96 340.82L430.11 340.06L430.27 339.32L430.41 338.6L430.53 337.89L430.65 337.18L430.76 336.49L430.93 335.1L431.01 334.41L431.07 333.72L431.12 333.02L431.17 332.31L431.2 331.6L431.23 330.87L431.26 330.13L431.27 329.37L431.28 328.58L431.27 327.78L431.27 326.95L431.26 326.08L431.24 325.19L431.22 324.28L431.19 323.32L431.16 322.32L431.12 321.28L431.08 320.2L431.02 318.85L430.99 317.55L430.95 316.27L430.94 315.03L430.93 313.84L430.94 312.66L430.96 311.52L431.01 310.4L431.06 309.3L431.14 308.22L431.23 307.17L431.34 306.12L431.47 305.09L431.62 304.07L431.8 303.05L431.98 302.05L432.2 301.04L432.44 300.03L432.71 299.02L433 298L433.32 296.98L433.65 295.95L434.02 294.89L434.42 293.83L434.85 292.74L435.31 291.64L435.79 290.51L436.31 289.35L436.86 288.16L437.44 286.95L438.07 285.7L438.71 284.42L439.4 283.09L440.12 281.72L440.88 280.31L441.67 278.85L442.51 277.34L443.39 275.78L444.29 274.17L445.26 272.5L445.58 271.92L445.9 271.32L446.23 270.69L446.57 270.04L446.93 269.37L447.28 268.67L447.65 267.95L448.02 267.21L448.4 266.45L448.79 265.67L449.17 264.88L449.97 263.25L450.36 262.4L450.77 261.55L451.17 260.69L451.99 258.93L452.41 258.04L452.83 257.14L453.23 256.23L454.47 253.48L454.87 252.56L455.29 251.63L456.09 249.79L456.48 248.87L457.64 246.13L458.01 245.23L458.39 244.33L458.74 243.44L459.1 242.57L459.45 241.7L459.78 240.85L460.11 240L460.44 239.18L461.08 237.48L461.7 235.82L462.29 234.22L462.86 232.67L463.4 231.16L463.91 229.69L464.4 228.27L464.86 226.88L465.29 225.54L465.69 224.24L466.07 222.98L466.43 221.75L466.76 220.56L467.06 219.39L467.34 218.27L467.59 217.17L467.83 216.1L468.03 215.06L468.21 214.04L468.37 213.07L468.51 212.09L468.61 211.15L468.7 210.23L468.77 209.33L468.81 208.45L468.82 207.58L468.81 206.73L468.79 205.88L468.74 205.07L468.67 204.25L468.58 203.45L468.46 202.65L468.33 201.86L468.17 201.08L468 200.31L467.8 199.52L467.58 198.76L467.34 197.99L467.09 197.21L466.82 196.43L466.62 195.93L466.39 195.4L466.14 194.86L465.88 194.31L465.58 193.75L465.27 193.18L464.94 192.6L464.6 192.01L464.23 191.41L463.85 190.82L463.46 190.22L463.06 189.61L462.21 188.4L461.31 187.19L460.86 186.6L460.4 186.01L459.92 185.43L459.44 184.85L458.97 184.29L458.48 183.73L457.99 183.19L457.5 182.65L457.02 182.13L456.53 181.63L456.05 181.15L455.57 180.68L455.09 180.23L454.62 179.8L454.16 179.4L453.7 179.02L453.26 178.66L452.81 178.32L452.38 178.01L451.96 177.74L451.56 177.49L451.18 177.27L450.79 177.09L450.43 176.94L450.33 176.89L450.13 176.81L450.03 176.76L449.94 176.72L449.86 176.68L449.78 176.63L449.7 176.58L449.62 176.53L449.47 176.43L449.28 176.28L449.23 176.23L449.17 176.18L449.07 176.07L448.99 175.97L448.96 175.91L448.92 175.86L448.88 175.76L448.83 175.6L448.82 175.5L448.83 175.44L448.84 175.35L448.88 175.26L448.97 175.11L449.01 175.08L449.06 175.04L449.1 175L449.27 174.91L449.45 174.86L449.67 174.83L449.89 174.82L450.16 174.85L450.44 174.9L450.74 174.98L451.06 175.08L451.4 175.2L451.75 175.34L452.13 175.51L452.51 175.7L452.91 175.91L453.31 176.13L453.73 176.37L454.16 176.63L454.6 176.9L455.04 177.19L455.48 177.49L455.95 177.82L456.39 178.14L456.86 178.49L457.31 178.84L458.22 179.57L458.67 179.95L459.12 180.34L459.57 180.73L460 181.13L460.43 181.53L460.85 181.94L461.25 182.35L461.64 182.76L462.02 183.17L462.39 183.58L462.74 184.01L463.07 184.41L463.39 184.82L463.69 185.23L463.95 185.63L464.18 185.95L464.38 186.27L464.57 186.56L464.75 186.83L464.92 187.1L465.08 187.34L465.23 187.56L465.38 187.77L465.5 187.97L465.64 188.15L465.75 188.31L465.85 188.46L465.96 188.59L466.05 188.72L466.13 188.82L466.21 188.9L466.28 188.97L466.34 189.03L466.4 189.06L466.45 189.09L466.49 189.1L466.53 189.1L466.56 189.08L466.6 189.04L466.61 189L466.63 188.94L466.64 188.86L466.64 188.76L466.65 188.66L466.65 188.54L466.64 188.4L466.63 188.26L466.62 188.1L466.61 187.93L466.58 187.74L466.57 187.53L466.54 187.32L466.51 187.09L466.49 186.84L466.45 186.59L466.39 186.12L466.3 185.65L466.19 185.15L466.06 184.65L465.91 184.12L465.73 183.58L465.54 183.03L465.33 182.46L465.09 181.89L464.84 181.3L464.58 180.7L464.3 180.1L463.99 179.5L463.68 178.89L463.36 178.26L462.66 177.02L462.29 176.4L461.91 175.77L461.52 175.14L460.71 173.9L460.29 173.29L459.42 172.07L458.97 171.48L458.52 170.89L458.06 170.31L457.6 169.74L457.14 169.18L456.66 168.64L456.19 168.11L455.72 167.59L455.24 167.09L454.76 166.6L454.27 166.13L453.8 165.68L453.32 165.26L452.83 164.85L452.36 164.46L451.73 163.97L451.1 163.49L450.48 163.03L449.86 162.57L449.23 162.13L448.61 161.7L447.34 160.88L446.72 160.49L446.08 160.12L445.45 159.76L444.82 159.41L443.54 158.75L442.91 158.45L442.28 158.16L441.64 157.88L441.01 157.61L440.37 157.36L439.74 157.11L439.11 156.89L438.47 156.69L437.84 156.49L437.21 156.31L436.58 156.14L435.96 155.98L434.7 155.72L434.07 155.61L433.45 155.51L432.84 155.43L432.22 155.36L430.99 155.27L430.38 155.25L429.77 155.24L429.16 155.25L428.57 155.27L427.96 155.3L427.37 155.35L426.53 155.45L425.69 155.59L424.87 155.74L424.04 155.92L423.23 156.14L422.42 156.39L421.61 156.66L420.8 156.96L419.99 157.3L419.18 157.68L418.36 158.1L417.54 158.55L416.71 159.04L415.87 159.58L415.02 160.15L414.16 160.77L413.29 161.43L412.4 162.14L411.49 162.9L410.57 163.71L409.63 164.56L408.68 165.47L407.69 166.43L406.69 167.44L405.66 168.51L404.59 169.64L403.52 170.82L402.4 172.05L401.26 173.36L400.08 174.73L398.87 176.15L397.63 177.65L396.35 179.21L395.02 180.84L393.66 182.53L392.26 184.29L390.82 186.12L389.33 188.03L387.79 190.02L386.22 192.07L384.58 194.18L382.97 196.25L381.36 198.28L379.77 200.26L378.19 202.2L376.61 204.1L375.03 205.96L373.47 207.8L371.9 209.61L370.33 211.38L368.75 213.12L367.17 214.84L365.59 216.53L363.99 218.21L362.38 219.86L360.75 221.5L359.1 223.13L357.44 224.74L355.75 226.34L354.04 227.93L352.3 229.52L350.53 231.1L348.73 232.68L346.9 234.25L345.03 235.83L343.12 237.41L341.17 238.99L339.19 240.59L337.15 242.2L335.07 243.82L332.94 245.45L330.76 247.1L328.53 248.76L326.23 250.46L323.88 252.16L321.47 253.9L319 255.66L316.45 257.45L313.86 259.27L311.18 261.12L310.62 261.51L310.06 261.89L309.49 262.29L308.91 262.69L308.32 263.09L307.73 263.51L307.13 263.93L305.92 264.77L304.7 265.64L303.45 266.53L302.84 266.97L302.22 267.41L301.61 267.86L301 268.29L299.77 269.18L299.16 269.62L297.97 270.5L297.37 270.93L296.79 271.36L296.21 271.78L295.64 272.2L295.09 272.62L294.53 273.02L293.99 273.42L293.46 273.82L292.94 274.2L292.44 274.58L291.95 274.96L291.46 275.31L291 275.67L290.55 276L290.12 276.33L289.7 276.65L289.31 276.95L288.92 277.24L288.17 277.83L287.45 278.36L286.77 278.87L286.11 279.33L285.51 279.76L284.92 280.14L284.38 280.49L283.87 280.8L283.39 281.07L282.94 281.3L282.54 281.51L282.17 281.67L281.83 281.81L281.54 281.9L281.28 281.96L281.06 281.99L280.87 281.99L280.72 281.94L280.6 281.87L280.52 281.76L280.48 281.62L280.48 281.46L280.51 281.25L280.59 281.03L280.7 280.76L280.86 280.48L281.05 280.16L281.28 279.82L281.54 279.44L281.86 279.03L282.2 278.6L282.59 278.15L283.02 277.65L283.49 277.14L283.99 276.61L284.54 276.04L285.14 275.46L285.77 274.84L286.44 274.2L287.16 273.55L287.41 273.31L287.67 273.07L287.93 272.83L288.18 272.59L288.44 272.34L288.68 272.1L289.18 271.6L289.43 271.36L289.67 271.11L289.92 270.87L290.16 270.62L290.39 270.37L290.62 270.13L290.85 269.89L291.07 269.64L291.29 269.4L291.72 268.92L291.93 268.69L292.12 268.46L292.51 268.01L292.87 267.57L293.2 267.15L293.35 266.95L293.51 266.74L293.65 266.55L293.78 266.36L293.91 266.18L294.02 266L294.14 265.83L294.24 265.66L294.32 265.5L294.48 265.21L294.54 265.08L294.75 264.55L294.86 264.18L294.92 264.01L294.96 263.85L294.99 263.7L295.03 263.4L295.04 263.26L295.01 263.01L294.99 262.88L294.91 262.66L294.85 262.56L294.78 262.44L294.69 262.35L294.6 262.26L294.49 262.16L294.23 261.98L294.07 261.89L293.91 261.81L293.73 261.72L293.09 261.47L292.83 261.39L292.57 261.3L292.29 261.21L291.99 261.13L291.66 261.05L291.33 260.95L290.97 260.86L290.59 260.76L290.19 260.67L289.78 260.57L289.34 260.48L288.88 260.36L287.52 260.03L286.22 259.71L284.97 259.39L283.76 259.1L282.62 258.82L281.52 258.54L280.48 258.27L279.48 258.02L278.52 257.78L277.62 257.54L276.75 257.31L275.93 257.09L275.13 256.89L274.4 256.69L273.7 256.49L273.03 256.29L272.4 256.11L271.8 255.94L271.24 255.76L270.71 255.59L270.21 255.44L269.74 255.28L269.31 255.13L268.16 254.69L267.82 254.54L267.51 254.4L267.22 254.25L266.95 254.11L266.7 253.98L266.47 253.83L266.25 253.7L265.86 253.41L265.68 253.27L265.52 253.12L265.23 252.82L265.09 252.66L264.99 252.53L264.9 252.39L264.82 252.27L264.77 252.16L264.74 252.03L264.7 251.93L264.71 251.82L264.72 251.72L264.76 251.63L264.82 251.54L264.89 251.45L264.99 251.37L265.11 251.3L265.25 251.22L265.42 251.16L265.61 251.09L265.82 251.04L266.06 250.99L266.32 250.95L266.6 250.9L266.93 250.87L267.26 250.83L267.63 250.81L268.03 250.78L268.46 250.76L268.91 250.75L269.4 250.74L269.9 250.73L270.45 250.73L271.02 250.74L271.63 250.74L272.27 250.76L272.94 250.78L273.65 250.8L274.39 250.82L279.25 251.04L279.87 251.08L281.12 251.12L281.73 251.15L282.93 251.21L283.51 251.23L284.09 251.25L285.22 251.3L285.77 251.32L286.3 251.33L286.83 251.36L287.35 251.38L287.86 251.39L288.82 251.43L289.28 251.45L289.73 251.46L290.15 251.48L290.57 251.48L290.97 251.49L291.36 251.51L292.07 251.52L292.39 251.52L292.7 251.53L292.99 251.53L293.26 251.53L293.5 251.53L293.73 251.53L293.93 251.53L294.11 251.53L294.27 251.52L294.4 251.51L294.5 251.5L294.59 251.48L294.65 251.47L294.79 251.4L294.88 251.32L294.97 251.2L295.06 251.04L295.13 250.86L295.2 250.64L295.27 250.4L295.33 250.12L295.38 249.83L295.43 249.51L295.47 249.17L295.5 248.81L295.53 248.43L295.56 248.03L295.57 247.62L295.59 246.77L295.58 246.32L295.57 245.41L295.55 244.94L295.5 244.01L295.47 243.54L295.43 243.08L295.4 242.61L295.35 242.15L295.3 241.7L295.24 241.26L295.18 240.83L295.12 240.41L294.97 239.62L294.88 239.25L294.8 238.9L294.72 238.57L294.62 238.25L294.53 237.97L294.43 237.7L294.32 237.47L294.22 237.28L294.11 237.09L294 236.92L293.88 236.75L293.64 236.45L293.51 236.3L293.37 236.17L293.21 236.04L293.05 235.92L292.87 235.8L292.69 235.7L292.49 235.6L292.26 235.5L292.03 235.41L291.78 235.33L291.51 235.25L291.22 235.17L290.91 235.1L290.58 235.04L290.23 234.98L289.84 234.93L289.44 234.88L289.01 234.83L288.55 234.79L288.06 234.76L287.55 234.73L287 234.69L286.42 234.68L285.81 234.65L285.16 234.63L284.47 234.61L283.76 234.6L283 234.58L282.21 234.58L281.37 234.57L280.49 234.56L279.59 234.56L278.62 234.56L277.62 234.56L275.15 234.57L272.76 234.57L270.43 234.55L268.17 234.5L265.96 234.44L263.81 234.37L261.73 234.26L259.7 234.15L257.72 234L255.82 233.84L253.96 233.67L252.15 233.46L250.41 233.25L248.71 233L247.07 232.74L245.48 232.45L243.94 232.15L242.45 231.81L241 231.46L239.61 231.08L238.26 230.69L236.95 230.27L235.69 229.82L234.47 229.35L233.3 228.86L232.16 228.34L231.08 227.8L230.02 227.23L229.01 226.64L228.04 226.02L227.1 225.38L226.2 224.71L225.33 224.01L224.5 223.29L223.7 222.54L222.94 221.77L222.19 220.97L221.5 220.14L220.81 219.28L220.17 218.39L219.81 217.9L219.64 217.66L219.47 217.42L219.31 217.18L219.15 216.95L218.99 216.71L218.69 216.26L218.4 215.82L218.26 215.6L218.12 215.4L217.75 214.79L217.64 214.6L217.52 214.41L217.42 214.23L217.22 213.89L217.13 213.73L217.04 213.57L216.9 213.28L216.83 213.14L216.62 212.67L216.55 212.48L216.51 212.32L216.5 212.25L216.49 212.16L216.51 212.11L216.53 212.09L216.55 212.07L216.57 212.07L216.61 212.07L216.65 212.08L216.72 212.1L217.2 212.29L217.34 212.35L217.48 212.4L217.63 212.47L217.98 212.63L218.16 212.72L218.35 212.81L218.55 212.91L218.76 213.02L219.21 213.23L219.45 213.35L219.68 213.48L219.94 213.6L220.18 213.73L220.44 213.86L220.71 214L221.26 214.31L221.55 214.46L221.84 214.61L222.13 214.78L222.43 214.95L222.73 215.11L223.34 215.46L223.97 215.82L224.27 216.01L224.59 216.21L224.92 216.39L226.29 217.18L227.68 217.93L229.09 218.67L230.54 219.36L231.99 220.04L233.46 220.69L234.97 221.31L236.47 221.9L238 222.47L239.54 223L241.09 223.51L242.65 223.99L244.2 224.44L245.77 224.85L247.35 225.26L248.92 225.61L250.5 225.94L252.07 226.24L253.65 226.51L255.21 226.75L256.77 226.96L258.33 227.14L259.87 227.29L261.39 227.4L262.91 227.48L264.42 227.53L265.91 227.54L267.38 227.54L268.82 227.48L270.25 227.4L271.66 227.29L273.04 227.14L274.4 226.96L275.72 226.74L277.02 226.48L278.28 226.19L279.52 225.87L280.72 225.52L281.87 225.12L282.99 224.69L283.63 224.42L284.27 224.14L284.91 223.84L286.18 223.21L286.81 222.86L287.44 222.51L288.07 222.14L288.68 221.76L289.29 221.38L290.48 220.59L291.06 220.19L291.63 219.77L292.18 219.35L292.73 218.93L293.26 218.5L293.78 218.08L294.27 217.63L294.76 217.21L295.22 216.78L295.66 216.35L296.09 215.93L296.49 215.5L296.86 215.08L297.23 214.67L297.56 214.26L297.86 213.85L298.14 213.46L298.4 213.08L298.62 212.7L298.82 212.33L298.97 211.99L299.1 211.64L299.21 211.31L299.27 210.99L299.3 210.69L299.3 210.42L299.26 210.15L299.18 209.89L299.13 209.83L299.03 209.74L298.9 209.64L298.72 209.53L298.51 209.39L298.26 209.24L297.97 209.07L297.63 208.89L297.26 208.69L296.86 208.48L296.42 208.26L295.94 208.02L295.43 207.76L294.88 207.49L294.31 207.22L293.7 206.93L293.07 206.63L292.41 206.32L291.72 205.99L291 205.67L290.25 205.32L289.48 204.96L288.68 204.61L287.86 204.23L287.03 203.86L286.16 203.47L285.27 203.07L284.37 202.68L283.44 202.28L282.5 201.86L281.54 201.44L280.57 201.02L279.58 200.59L278.57 200.16L277.54 199.73L276.52 199.28L275.47 198.85L274.41 198.39L272.27 197.5L271.09 197.01L269.92 196.53L268.79 196.04L267.66 195.56L266.53 195.09L265.44 194.62L264.36 194.15L263.3 193.7L262.26 193.25L261.24 192.8L260.23 192.35L259.25 191.92L258.3 191.49L257.36 191.07L256.45 190.65L255.55 190.24L254.68 189.84L253.84 189.44L253.02 189.07L252.22 188.69L251.45 188.32L250.71 187.96L249.99 187.61L249.3 187.27L248.65 186.95L248.01 186.62L247.41 186.32L246.84 186.02L246.3 185.73L245.78 185.46L245.31 185.19L244.86 184.94L244.45 184.69L244.07 184.47L243.73 184.25L243.41 184.04L243.14 183.86L242.89 183.68L242.69 183.52L242.52 183.37L242.29 183.15L242.06 182.92L241.84 182.71L241.65 182.51L241.46 182.33L241.29 182.14L241.13 181.97L240.97 181.81L240.83 181.65L240.71 181.5L240.6 181.36L240.49 181.23L240.4 181.1L240.33 180.97L240.27 180.86L240.21 180.74L240.17 180.63L240.13 180.42L240.13 180.33L240.15 180.24L240.17 180.14L240.21 180.04L240.25 179.96L240.31 179.87L240.38 179.78L240.46 179.69L240.68 179.51L240.79 179.42L240.93 179.33L241.08 179.23L241.24 179.14L241.41 179.04L241.59 178.93L241.79 178.82L242 178.71L242.22 178.6L242.7 178.35L242.95 178.22L243.18 178.11L243.41 177.99L243.62 177.87L243.82 177.76L244.19 177.55L244.34 177.45L244.5 177.35L244.65 177.25L244.78 177.16L245.02 176.96L245.21 176.77L245.3 176.67L245.37 176.57L245.44 176.46L245.49 176.36L245.57 176.15L245.61 176.03L245.62 175.92L245.64 175.79L245.64 175.66L245.63 175.52L245.63 175.38L245.6 175.24L245.57 175.08L245.54 174.92L245.5 174.75L245.45 174.57L245.4 174.39L245.33 174.19L245.27 173.99L245.19 173.77L245.11 173.55L245.02 173.31L244.93 173.06L244.83 172.8L244.68 172.43L244.56 172.07L244.45 171.74L244.34 171.42L244.25 171.14L244.18 170.88L244.11 170.64L244.06 170.43L244.04 170.26L244.02 170.09L244.02 169.95L244.04 169.85L244.07 169.77L244.13 169.71L244.2 169.67L244.28 169.67L244.39 169.7L244.53 169.75L244.67 169.83L244.84 169.94L245.03 170.07L245.24 170.24L245.46 170.43L245.71 170.66L245.98 170.91L246.28 171.19L246.61 171.49L246.94 171.84L247.31 172.21L247.71 172.61L248.11 173.04L248.56 173.5L249.02 174L249.52 174.52L250.04 175.08L250.58 175.66L251.15 176.28L251.76 176.94L252.39 177.63L253.37 178.7L253.69 179.04L254.01 179.39L254.34 179.73L254.67 180.07L255 180.41L255.33 180.75L255.65 181.08L255.99 181.42L256.32 181.74L256.64 182.06L256.97 182.38L257.29 182.7L257.61 183L257.92 183.31L258.24 183.6L258.56 183.9L258.87 184.18L259.17 184.46L259.47 184.73L259.77 184.99L260.34 185.49L260.61 185.73L261.16 186.18L261.41 186.39L261.91 186.78L262.14 186.96L262.36 187.13L262.58 187.29L262.79 187.44L262.99 187.56L263.17 187.69L263.34 187.79L263.51 187.89L263.67 187.98L263.81 188.04L264.34 188.25L264.52 188.3L264.7 188.35L264.85 188.39L265 188.43L265.14 188.44L265.26 188.46L265.37 188.45L265.47 188.44L265.56 188.42L265.65 188.38L265.72 188.33L265.77 188.27L265.82 188.19L265.85 188.11L265.87 188L265.88 187.88L265.88 187.75L265.86 187.6L265.83 187.43L265.8 187.25L265.75 187.06L265.69 186.84L265.61 186.61L265.52 186.36L265.42 186.08L265.31 185.8L265.18 185.49L265.05 185.16L264.89 184.82L264.74 184.45L264.56 184.06L264.37 183.65L264.17 183.21L263.95 182.76L263.72 182.29L263.48 181.79L263.22 181.26L262.96 180.72L262.62 180.01L262.29 179.35L261.98 178.69L261.69 178.07L261.41 177.47L260.67 175.82L260.46 175.31L260.26 174.84L260.07 174.38L259.92 173.95L259.76 173.55L259.63 173.17L259.51 172.83L259.41 172.51L259.33 172.22L259.26 171.96L259.21 171.71L259.17 171.51L259.16 171.32L259.16 171.18L259.17 171.05L259.2 170.96L259.25 170.89L259.31 170.86L259.4 170.85L259.5 170.88L259.61 170.93L259.74 171.02L259.89 171.14L260.05 171.29L260.24 171.47L260.66 171.93L260.89 172.21L261.15 172.53L261.42 172.88L261.7 173.25L262.01 173.67L262.23 173.97L262.34 174.13L262.46 174.29L262.59 174.45L262.71 174.62L262.96 174.95L263.08 175.13L263.22 175.3L263.35 175.49L263.48 175.65L263.61 175.84L263.75 176.01L264.01 176.37L264.16 176.56L264.29 176.73L264.56 177.1L264.7 177.28L264.84 177.45L265.11 177.82L265.24 177.99L265.38 178.17L265.5 178.34L265.64 178.51L265.77 178.68L265.9 178.85L266.02 179.02L266.15 179.19L266.28 179.34L266.39 179.51L266.51 179.66L266.62 179.81L266.74 179.96L266.86 180.1L266.96 180.25L267.06 180.38L267.84 181.39L268.68 182.38L269.57 183.34L270.49 184.28L271.47 185.2L272.47 186.09L273.53 186.96L274.61 187.8L275.73 188.61L276.88 189.39L278.04 190.15L279.25 190.88L280.46 191.57L281.69 192.22L282.94 192.85L284.19 193.44L285.46 193.99L286.74 194.52L288.02 194.99L289.29 195.44L290.57 195.84L291.84 196.21L293.09 196.52L294.34 196.81L295.57 197.05L296.79 197.24L297.99 197.39L299.15 197.49L300.3 197.55L301.42 197.55L302.51 197.51L303.56 197.43L304.58 197.28L305.55 197.09L306.48 196.84L307.36 196.53L308.2 196.19L308.99 195.78L309.72 195.31L310.39 194.78L310.5 194.68L310.62 194.56L310.74 194.43L310.88 194.27L311.02 194.09L311.18 193.9L311.33 193.69L311.5 193.47L311.67 193.22L311.85 192.97L312.04 192.69L312.22 192.41L312.42 192.1L312.62 191.79L312.83 191.46L313.05 191.11L313.26 190.76L313.48 190.39L313.71 190.02L313.94 189.63L314.17 189.23L314.41 188.82L314.65 188.4L314.89 187.96L315.14 187.53L315.38 187.09L315.64 186.64L315.89 186.17L316.15 185.71L316.4 185.24L316.66 184.75L316.92 184.28L317.18 183.78L317.44 183.29L317.7 182.8L317.95 182.29L318.22 181.79L318.98 180.26L319.73 178.8L320.45 177.39L321.16 176.04L321.86 174.76L322.55 173.52L323.23 172.34L323.9 171.19L324.55 170.11L325.21 169.07L325.86 168.08L326.51 167.13L327.15 166.23L327.8 165.37L328.45 164.56L329.1 163.8L329.75 163.06L330.42 162.37L331.09 161.72L331.76 161.09L332.45 160.51L333.15 159.95L333.87 159.44L334.6 158.96L335.35 158.5L336.11 158.08L336.89 157.69L337.7 157.32L338.52 156.98L339.37 156.66L340.24 156.36L341.15 156.09L342.08 155.84L343.04 155.6L344.03 155.38L345.05 155.18L346.11 155.01L347.2 154.83L348.34 154.68L349.5 154.54L350.71 154.41L351.34 154.35L352.53 154.24L353.1 154.17L353.67 154.1L354.21 154.02L354.75 153.95L355.27 153.88L355.78 153.8L356.27 153.72L357.23 153.53L357.69 153.45L358.58 153.24L359.02 153.13L359.44 153.02L360.27 152.79L360.67 152.67L361.06 152.53L361.84 152.26L362.21 152.12L362.95 151.8L363.31 151.64L363.68 151.47L364.03 151.3L364.75 150.93L365.8 150.33L366.16 150.11L366.86 149.66L367.21 149.42L367.57 149.18L367.93 148.92L369.4 147.78L370.81 146.6L372.15 145.39L373.42 144.16L374.63 142.89L375.75 141.6L376.82 140.29L377.82 138.97L378.75 137.63L379.6 136.27L380.39 134.9L381.11 133.53L381.76 132.16L382.33 130.78L382.84 129.4L383.27 128.01L383.65 126.64L383.94 125.27L384.16 123.92L384.31 122.57L384.39 121.24L384.41 119.93L384.34 118.64L384.21 117.37L383.99 116.13L383.72 114.92L383.36 113.73L382.93 112.58L382.43 111.46L381.85 110.39L381.21 109.36L380.48 108.36L379.68 107.41L378.81 106.51L377.86 105.66L376.84 104.86L375.74 104.13L374.57 103.44L373.32 102.83L372 102.28L371.28 102L370.96 101.87L370.35 101.63L370.08 101.52L369.82 101.4L369.58 101.3L369.35 101.2L369.15 101.11L368.96 101.01L368.79 100.92L368.63 100.84L368.49 100.76L368.37 100.68L368.27 100.6L368.17 100.52L368.1 100.45L368.05 100.38L368 100.3L367.97 100.23L367.96 100.15L367.97 100.08L367.99 100.01L368.02 99.94L368.07 99.86L368.13 99.79L368.21 99.71L368.41 99.55L368.53 99.46L368.67 99.38L368.82 99.3L368.97 99.2L369.15 99.11L369.35 99.01L369.54 98.91L369.76 98.8L370 98.69L370.23 98.57L370.62 98.36L370.99 98.14L371.34 97.93L371.67 97.69L371.96 97.45L372.25 97.2L372.5 96.94L372.74 96.67L372.96 96.41L373.15 96.13L373.32 95.85L373.47 95.55L373.6 95.25L373.7 94.94L373.79 94.63L373.85 94.31L373.89 93.98L373.92 93.64L373.9 93.3L373.88 92.95L373.84 92.59L373.77 92.24L373.68 91.86L373.57 91.5L373.44 91.13L373.28 90.73L373.1 90.34L372.91 89.96L372.69 89.55L372.44 89.14L372.18 88.73L371.9 88.33L371.58 87.9L371.26 87.47L370.91 87.04L370.54 86.61L370.14 86.17L369.73 85.73L369.29 85.27L368.83 84.82L368.11 84.13L367.39 83.46L366.66 82.83L365.92 82.24L365.17 81.67L364.41 81.14L363.63 80.64L362.84 80.18L362.02 79.76L361.19 79.37L360.32 79L359.43 78.68L358.51 78.39L357.55 78.13L356.58 77.9L355.56 77.71L354.5 77.56L353.4 77.43L352.26 77.33L351.08 77.28L349.85 77.25L348.56 77.26L347.24 77.3L345.86 77.37L344.41 77.48L342.91 77.61L341.35 77.78L339.74 77.99L338.06 78.23L336.3 78.5L334.49 78.79L332.6 79.13L330.63 79.5L328.59 79.89L326.47 80.32L324.27 80.79L322 81.28L319.63 81.8L317.18 82.37L314.64 82.96L310.3 84.01L305.92 85.11L301.53 86.26L297.12 87.46L292.69 88.7L288.25 90L283.81 91.32L279.38 92.69L274.94 94.09L270.54 95.53L266.14 97L261.75 98.51L257.4 100.04L253.09 101.61L248.8 103.18L244.56 104.79L240.38 106.42L236.23 108.07L232.14 109.73L228.12 111.41L224.16 113.1L220.28 114.8L216.47 116.51L212.74 118.22L209.1 119.94L205.55 121.67L202.09 123.39L198.74 125.11L195.5 126.82L192.36 128.52L189.34 130.23L186.45 131.92L183.67 133.59L181.03 135.27L178.53 136.91L176.16 138.54L173.94 140.15L171.88 141.73L169.96 143.29L168.21 144.82L167 145.95L165.83 147.1L164.72 148.27L163.66 149.49L162.63 150.72L161.67 151.99L160.76 153.27L159.89 154.6L159.07 155.96L158.3 157.34L157.57 158.77L156.9 160.22L156.28 161.71L155.7 163.23L155.17 164.8L154.69 166.39L154.25 168.02L153.87 169.7L153.53 171.4L153.24 173.15L152.99 174.93L152.8 176.77L152.65 178.63L152.54 180.55L152.49 182.5L152.48 184.51L152.52 186.55L152.61 188.64L152.74 190.77L152.91 192.94L153.14 195.18L153.4 197.45L153.72 199.77L154.08 202.14L154.49 204.57L154.94 207.04L155.44 209.56L155.98 212.14L156.57 214.77L157.2 217.45L157.59 219.12L158.01 220.77L158.43 222.41L158.87 224.06L159.32 225.7L159.78 227.34L160.25 228.99L160.76 230.64L161.27 232.29L161.8 233.96L162.34 235.65L162.91 237.35L163.49 239.07L164.11 240.81L164.74 242.58L165.4 244.36L166.08 246.19L166.79 248.03L167.53 249.93L168.3 251.85L169.1 253.81L169.93 255.83L170.78 257.87L171.68 259.97L172.6 262.12L173.55 264.32L174.55 266.58L175.59 268.89L176.65 271.27L177.76 273.71L178.91 276.21L180.1 278.78L181.33 281.42L182.6 284.14L183.93 286.93L185.29 289.81L186.7 292.76L188.16 295.79L189.66 298.91L191.21 302.12L193.02 305.88L194.77 309.54L196.47 313.09L198.1 316.54L199.68 319.89L201.22 323.14L202.69 326.3L204.12 329.37L205.49 332.34L206.82 335.24L208.09 338.04L209.32 340.78L210.51 343.44L211.64 346.02L212.75 348.53L213.8 350.98L214.82 353.36L215.79 355.68L216.72 357.95L217.63 360.16L218.49 362.32L219.32 364.42L220.11 366.49L220.88 368.5L221.61 370.48L222.31 372.42L222.98 374.32L223.63 376.21L224.24 378.05L224.83 379.88L225.39 381.67L225.94 383.46L226.46 385.22L226.97 386.97L227.44 388.72L227.9 390.44L228.35 392.18L228.78 393.91L229.19 395.63L229.6 397.38L230.23 400.23L230.83 403.05L231.4 405.84L231.94 408.61L232.44 411.36L232.92 414.1L233.36 416.84L233.77 419.58L234.14 422.33L234.48 425.09L234.8 427.87L235.07 430.67L235.32 433.52L235.54 436.4L235.71 439.34L235.86 442.31L235.98 445.35L236.05 448.46L236.11 451.63L236.13 454.88L236.12 458.21L236.07 461.63L235.98 465.16L235.87 468.78L235.73 472.51L235.55 476.36L235.34 480.31L235.1 484.41L234.82 488.64L234.51 493L234.17 497.51L233.8 502.18L233.39 506.99L232.96 511.98L232.48 517.13L231.98 522.47L231.44 527.98L230.87 533.68L230.26 539.59L229.63 545.7L229.38 548.12L229.12 550.55L228.88 552.99L228.63 555.44L228.4 557.89L228.16 560.33L227.72 565.22L227.51 567.66L227.3 570.08L227.1 572.5L226.91 574.89L226.72 577.28L226.54 579.65L226.36 581.99L226.2 584.3L226.03 586.59L225.88 588.86L225.74 591.1L225.6 593.29L225.47 595.46L225.35 597.59L225.24 599.68L225.12 601.72L225.02 603.72L224.94 605.67L224.86 607.57L224.78 609.42L224.72 611.22L224.67 612.96L224.62 614.63L224.58 616.25L224.56 617.81L224.54 619.29L224.53 620.71L224.53 622.06L224.54 623.33L224.57 624.52L224.6 625.64L224.64 626.69L224.66 627.08L224.68 627.45L224.7 627.81L224.72 628.15L224.73 628.48L224.74 628.78L224.73 629.08L224.74 629.35L224.74 629.62L224.73 630.09L224.7 630.31L224.68 630.51L224.67 630.71L224.63 630.9L224.6 631.07L224.55 631.23L224.51 631.38L224.47 631.52L224.4 631.65L224.35 631.77L224.27 631.88L224.12 632.09L224.02 632.17L223.93 632.26L223.82 632.34L223.71 632.41L223.59 632.48L223.46 632.54L223.33 632.61L223.03 632.71L222.88 632.77L222.7 632.81L222.53 632.86L222.34 632.91L222.15 632.95L221.94 632.99L221.72 633.04L221.49 633.07L221.28 633.09L221.08 633.08L220.89 633.03L220.71 632.96L220.54 632.84L220.39 632.68L220.24 632.48L220.11 632.23L219.98 631.91L219.87 631.54L219.77 631.1L219.68 630.6L219.6 630.02L219.54 629.36L219.48 628.61L219.44 627.78L219.4 626.87L219.37 625.85L219.36 624.73L219.36 623.51L219.37 622.19L219.38 620.74L219.41 619.19L219.44 617.51L219.49 615.7L219.56 613.75L219.63 611.68L219.7 609.46L219.79 607.11L219.9 604.6L220 601.94L220.13 599.12L220.26 596.14L220.39 592.99L220.54 589.68L220.7 586.18L220.87 582.51L221.04 578.66L221.24 574.62L221.36 572.18L221.48 569.73L221.6 567.27L221.85 562.3L221.99 559.81L222.11 557.32L222.38 552.33L222.5 549.85L222.64 547.37L222.77 544.9L222.91 542.45L223.03 540.01L223.17 537.59L223.31 535.2L223.44 532.83L223.57 530.47L223.7 528.16L223.82 525.88L223.96 523.64L224.09 521.42L224.22 519.26L224.34 517.14L224.46 515.06L224.58 513.03L224.71 511.05L224.82 509.13L224.93 507.26L225.05 505.46L225.16 503.71L225.27 502.03L225.37 500.42L225.47 498.89L225.57 497.43L225.66 496.03L225.75 494.73L225.84 493.5L225.92 492.36L226.01 491.31L226.2 488.91L226.39 486.58L226.57 484.32L226.74 482.11L226.9 479.96L227.06 477.87L227.19 475.84L227.32 473.84L227.45 471.91L227.56 470.01L227.66 468.16L227.75 466.36L227.83 464.58L227.91 462.86L227.97 461.16L228.03 459.5L228.07 457.87L228.1 456.26L228.14 454.68L228.15 453.12L228.15 451.6L228.15 450.08L228.14 448.58L228.11 447.09L228.08 445.62L228.04 444.16L227.99 442.7L227.93 441.26L227.78 438.36L227.69 436.9L227.59 435.45L227.48 433.99L227.37 432.52L227.23 431.03L227.1 429.54L226.95 428.03L226.8 426.51L226.63 424.95L226.46 423.38L226.2 421.18L225.93 419.03L225.65 416.93L225.35 414.87L225.05 412.83L224.72 410.82L224.38 408.84L224.02 406.85L223.62 404.88L223.2 402.91L222.76 400.92L222.29 398.94L221.78 396.92L221.24 394.88L220.67 392.81L220.04 390.71L219.38 388.56L218.69 386.36L217.94 384.1L217.14 381.78L216.31 379.38L215.41 376.92L214.46 374.37L213.46 371.73L212.4 369.01L211.27 366.18L210.09 363.24L208.83 360.19L207.52 357.02L206.13 353.73L204.68 350.3L203.15 346.74L201.55 343.03L199.86 339.17L198.1 335.15L196.25 330.98L194.32 326.63L190.21 317.4L188.02 312.51L186.88 309.97L184.62 304.91L183.49 302.38L181.26 297.37L180.16 294.88L179.07 292.41L177.98 289.96L176.92 287.53L175.86 285.12L174.82 282.74L173.78 280.4L172.77 278.08L171.78 275.8L170.8 273.56L169.84 271.35L168.9 269.19L167.99 267.07L167.1 265L166.23 262.97L165.39 261L164.56 259.08L163.77 257.22L163 255.43L162.27 253.69L161.57 252.01L160.89 250.4L160.25 248.87L159.65 247.39L159.07 246L158.54 244.69L158.03 243.45L157.57 242.3L157.14 241.23L156.77 240.25L156.42 239.35L156.12 238.55L155.86 237.85L155.66 237.23L155.16 235.82L154.2 232.97L153.74 231.54L153.28 230.11L152.84 228.66L152.4 227.23L151.98 225.78L151.57 224.33L151.17 222.89L150.77 221.43L150.02 218.54L149.67 217.1L149.31 215.66L148.98 214.22L148.65 212.79L148.34 211.35L148.04 209.94L147.75 208.51L147.46 207.1L147.19 205.71L146.94 204.31L146.69 202.92L146.46 201.54L146.23 200.18L146.02 198.83L145.83 197.49L145.64 196.17L145.47 194.85L145.31 193.56L145.17 192.27L145.03 191.01L144.91 189.75L144.8 188.53L144.71 187.31L144.62 186.11L144.56 184.94L144.5 183.78L144.46 182.65L144.44 181.85L144.43 181.07L144.42 180.31L144.42 179.58L144.41 178.88L144.41 178.19L144.42 177.53L144.44 176.88L144.45 176.25L144.48 175.63L144.5 175.03L144.54 174.45L144.58 173.87L144.63 173.3L144.74 172.2L144.81 171.65L144.89 171.11L145.06 170.03L145.17 169.5L145.27 168.96L145.39 168.42L145.65 167.33L145.79 166.76L145.95 166.2L146.11 165.63L146.27 165.04L146.46 164.44L146.65 163.83L146.86 163.21L147.07 162.56L147.29 161.89L147.53 161.21L147.78 160.5L148.03 159.78L148.3 159.03L148.59 158.26L148.88 157.45L149.2 156.64L149.79 155.1L150.08 154.38L150.35 153.7L150.62 153.02L150.89 152.4L151.14 151.78L151.4 151.2L151.64 150.63L151.88 150.08L152.12 149.56L152.36 149.06L152.6 148.58L152.83 148.11L153.08 147.66L153.55 146.79L153.79 146.38L154.29 145.59L154.54 145.21L154.8 144.84L155.06 144.47L155.33 144.11L155.62 143.75L155.91 143.4L156.21 143.05L156.51 142.69L156.83 142.33L157.17 141.98L157.51 141.61L157.87 141.25L158.23 140.89L158.61 140.51L159.02 140.12L159.43 139.72L159.86 139.32L160.32 138.91L160.78 138.48L161.63 137.73L162.49 136.98L163.38 136.25L164.28 135.52L165.2 134.8L166.14 134.09L167.11 133.38L168.09 132.68L169.11 131.97L170.15 131.27L171.23 130.57L172.32 129.87L173.46 129.18L174.62 128.48L175.81 127.79L177.04 127.1L178.3 126.4L179.6 125.7L180.94 125L182.32 124.3L183.74 123.59L185.19 122.88L186.68 122.16L188.22 121.44L189.82 120.72L191.45 119.97L193.13 119.23L194.86 118.49L196.64 117.72L198.47 116.96L200.35 116.18L202.28 115.39L204.27 114.59L206.32 113.78L208.42 112.94L210.57 112.11L212.8 111.26L215.08 110.39L217.42 109.51L219.82 108.62L221.08 108.16L222.37 107.69L223.69 107.21L225.02 106.72L226.39 106.22L227.77 105.71L229.17 105.19L230.59 104.66L232.02 104.13L233.46 103.59L236.39 102.49L239.35 101.38L242.33 100.26L243.82 99.69L245.31 99.13L246.79 98.57L248.29 98.01L249.76 97.44L251.23 96.88L252.69 96.33L254.14 95.78L255.57 95.23L257 94.69L258.4 94.15L259.78 93.62L261.15 93.1L262.5 92.57L263.81 92.08L265.12 91.57L266.38 91.09L267.62 90.61L268.83 90.15L270.01 89.69L271.15 89.26L272.26 88.83L273.32 88.42L274.35 88.02L276.73 87.08L279.06 86.16L281.35 85.25L283.57 84.39L285.76 83.55L287.9 82.73L289.98 81.94L292.03 81.18L294.03 80.43L295.99 79.71L297.89 79.02L299.77 78.35L301.59 77.7L303.38 77.08L305.13 76.48L306.84 75.9L308.53 75.34L310.16 74.81L311.77 74.3L313.34 73.81L314.88 73.34L316.39 72.89L317.87 72.46L319.32 72.06L320.74 71.67L322.14 71.3L323.5 70.96L324.84 70.62L326.16 70.32L327.45 70.02L328.71 69.76L329.97 69.5L331.19 69.26L332.4 69.05L333.59 68.84L334.76 68.65L335.92 68.49L337.05 68.34L338.18 68.2L339.29 68.07L351.39 66.83L364.66 72.88L365.28 73.15ZM392.91 89.67L392.52 89.76L392.22 89.9L392.01 90.09L391.86 90.32L391.83 90.64L391.86 91.3L391.93 92.27L392.05 93.51L392.22 95.01L392.41 96.72L392.64 98.62L392.9 100.67L393.17 102.85L393.48 105.13L393.79 107.46L394.44 112.23L394.78 114.58L395.11 116.88L395.44 119.09L395.75 121.18L396.05 123.13L396.34 124.9L396.59 126.45L396.82 127.77L397.03 128.81L397.2 129.56L397.32 129.98L397.59 130.38L398.01 130.72L398.56 130.96L399.24 131.15L400.03 131.27L400.92 131.31L401.91 131.28L402.96 131.21L404.09 131.07L405.27 130.88L406.48 130.64L407.72 130.35L408.99 130.01L410.24 129.64L411.5 129.21L412.74 128.76L413.94 128.27L415.09 127.76L416.19 127.21L417.22 126.64L418.17 126.05L419.01 125.45L419.77 124.83L420.39 124.19L420.75 123.76L421.06 123.29L421.35 122.79L421.57 122.26L421.78 121.71L421.94 121.13L422.06 120.55L422.14 119.95L422.19 119.35L422.2 118.74L422.18 118.14L422.11 117.53L422.02 116.94L421.88 116.36L421.72 115.8L421.51 115.27L421.29 114.75L421.02 114.28L420.73 113.83L420.4 113.42L420.03 113.06L419.64 112.74L419.22 112.47L418.76 112.26L418.6 112.19L418.42 112.1L418.22 111.97L418.01 111.83L417.78 111.66L417.54 111.47L417.29 111.25L417.03 111.02L416.75 110.79L416.48 110.53L416.18 110.25L415.89 109.95L415.59 109.65L415.29 109.33L414.97 109.01L414.66 108.66L414.35 108.33L413.41 107.25L413.09 106.88L412.79 106.51L412.48 106.14L412.19 105.77L407.97 100.17L412.87 101.09L413.71 101.22L414.48 101.32L415.16 101.38L415.77 101.41L416.29 101.42L416.73 101.38L417.11 101.34L417.39 101.25L417.61 101.14L417.74 100.99L417.8 100.83L417.78 100.63L417.68 100.41L417.51 100.15L417.26 99.88L416.93 99.56L416.53 99.23L416.05 98.86L415.49 98.48L414.86 98.06L414.16 97.63L413.37 97.16L412.51 96.66L411.59 96.15L410.35 95.51L409.12 94.89L407.93 94.3L406.73 93.75L405.57 93.23L404.43 92.73L403.32 92.27L402.24 91.85L401.19 91.45L400.19 91.09L399.22 90.77L398.3 90.49L397.42 90.25L396.61 90.04L395.84 89.87L395.12 89.74L394.47 89.66L393.88 89.62L393.37 89.62L392.91 89.67Z" id="a2zv1GErlh"></path><path d="M365.28 73.15L365.9 73.42L366.53 73.69L367.15 73.96L367.8 74.22L368.44 74.49L369.1 74.75L369.75 75L370.4 75.27L372.39 76.03L373.06 76.27L373.73 76.53L374.4 76.77L375.07 77.01L375.74 77.25L376.41 77.49L377.08 77.72L377.76 77.94L378.42 78.18L379.75 78.62L380.43 78.83L381.08 79.04L381.74 79.25L382.39 79.45L383.05 79.64L383.7 79.84L384.34 80.03L385.61 80.4L386.24 80.58L387.47 80.91L388.66 81.22L389.26 81.37L389.84 81.51L390.42 81.66L390.94 81.76L391.47 81.87L392.01 81.98L392.56 82.1L393.68 82.36L394.25 82.49L394.82 82.62L395.98 82.9L396.57 83.05L397.75 83.34L400.68 84.1L401.84 84.43L402.42 84.58L402.98 84.75L403.56 84.91L404.12 85.07L404.66 85.23L405.21 85.38L405.75 85.54L406.28 85.71L406.8 85.86L407.31 86.02L407.82 86.16L408.31 86.32L408.78 86.48L409.25 86.62L409.7 86.77L410.13 86.91L410.56 87.05L410.97 87.18L411.36 87.32L411.74 87.45L420.53 90.66L426.55 103.16L427.01 104.09L427.44 104.96L427.86 105.8L428.26 106.59L428.65 107.37L429.03 108.09L429.4 108.79L429.75 109.45L430.1 110.09L430.46 110.69L430.81 111.27L431.16 111.83L431.5 112.36L431.85 112.88L432.21 113.38L432.57 113.85L432.95 114.32L433.32 114.77L433.71 115.21L434.12 115.64L434.54 116.05L434.97 116.47L435.43 116.88L435.91 117.28L436.41 117.69L436.94 118.09L437.49 118.51L438.07 118.92L438.67 119.33L439.32 119.77L439.99 120.21L440.7 120.65L441.44 121.11L442.22 121.59L443.04 122.07L443.91 122.58L444.81 123.12L445.77 123.67L446.78 124.26L447.83 124.85L448.85 125.45L449.83 126.01L450.75 126.57L451.64 127.1L452.48 127.63L453.29 128.15L454.07 128.65L454.8 129.15L455.51 129.66L456.18 130.17L456.82 130.68L457.44 131.21L458.04 131.74L458.61 132.3L459.17 132.88L459.7 133.48L460.23 134.1L460.73 134.76L461.21 135.45L461.7 136.17L462.18 136.93L462.65 137.73L463.11 138.59L463.58 139.48L464.04 140.44L464.51 141.44L464.98 142.5L465.46 143.63L465.95 144.82L466.45 146.08L466.95 147.4L467.47 148.81L468.01 150.3L468.58 151.85L469.16 153.5L469.76 155.23L470.4 157.06L471.04 158.98L471.73 160.99L472.44 163.11L472.63 163.64L472.83 164.18L473.04 164.73L473.26 165.29L473.48 165.85L473.71 166.43L473.97 167.01L474.21 167.61L474.47 168.21L475.02 169.44L475.3 170.06L475.9 171.31L476.2 171.95L476.52 172.59L476.84 173.23L477.17 173.88L477.84 175.19L478.19 175.83L478.87 177.15L479.23 177.8L479.6 178.46L479.96 179.11L480.7 180.42L481.08 181.07L481.45 181.72L481.84 182.36L482.22 183.01L482.61 183.65L482.99 184.27L483.78 185.53L484.17 186.14L485.34 187.95L485.93 188.8L486.49 189.61L487.03 190.39L487.55 191.15L488.04 191.88L488.51 192.58L488.95 193.26L489.38 193.91L489.78 194.54L490.17 195.16L490.54 195.75L490.88 196.32L491.21 196.88L491.52 197.43L491.82 197.96L492.09 198.47L492.35 198.98L492.59 199.48L492.82 199.97L493.04 200.45L493.24 200.93L493.43 201.4L493.61 201.87L493.77 202.34L494.08 203.29L494.21 203.76L494.33 204.25L494.56 205.22L494.66 205.73L494.75 206.24L494.84 206.76L494.92 207.31L495 207.85L495.13 209L495.2 209.61L495.32 210.88L495.4 211.88L495.46 212.9L495.52 213.95L495.55 215L495.58 216.06L495.59 217.15L495.59 218.25L495.58 219.35L495.52 221.62L495.47 222.79L495.4 223.95L495.33 225.13L495.14 227.55L495.03 228.77L494.9 230.01L494.77 231.26L494.62 232.53L494.46 233.8L494.29 235.09L494.1 236.39L493.91 237.7L493.7 239.03L493.47 240.36L493.24 241.7L493 243.06L492.74 244.42L492.47 245.81L492.19 247.2L491.9 248.6L491.59 250.01L491.28 251.43L490.6 254.3L490.25 255.75L489.89 257.22L489.51 258.68L488.73 261.65L484.12 278.19L474.54 289.47L473.9 290.22L473.29 290.94L472.72 291.63L472.15 292.3L471.62 292.94L471.12 293.56L470.62 294.16L470.16 294.75L469.71 295.32L469.29 295.86L468.88 296.4L468.49 296.91L468.13 297.43L467.77 297.94L467.43 298.43L467.1 298.91L466.79 299.4L466.49 299.88L466.2 300.36L465.92 300.84L465.66 301.32L465.14 302.29L464.89 302.79L464.66 303.3L464.42 303.8L463.96 304.87L463.73 305.43L463.5 305.99L463.04 307.19L462.81 307.82L462.59 308.47L462.35 309.15L462.11 309.84L461.86 310.57L461.61 311.33L461.34 312.12L461.07 312.94L460.72 314.12L460.37 315.3L460.05 316.49L459.74 317.69L459.44 318.91L459.16 320.13L458.89 321.37L458.64 322.64L458.4 323.92L458.18 325.23L457.97 326.56L457.79 327.91L457.6 329.29L457.44 330.71L457.3 332.15L457.17 333.64L457.05 335.15L456.94 336.7L456.86 338.3L456.78 339.94L456.73 341.61L456.68 343.34L456.65 345.12L456.63 346.94L456.63 348.81L456.64 350.74L456.67 352.72L456.71 354.76L456.76 356.86L456.84 359.03L456.92 361.24L457.02 363.54L457.13 365.9L457.26 368.32L457.4 370.81L457.55 373.39L457.71 376.03L457.9 378.75L458.09 381.56L458.3 384.43L458.65 389.23L458.98 393.8L459.28 398.17L459.56 402.33L459.81 406.31L460.02 410.11L460.21 413.74L460.36 417.19L460.48 420.49L460.56 423.65L460.6 426.66L460.61 429.55L460.56 432.31L460.48 434.96L460.36 437.51L460.18 439.96L459.96 442.31L459.69 444.59L459.37 446.81L459 448.95L458.56 451.05L458.08 453.09L457.53 455.11L456.94 457.09L456.27 459.05L455.54 461L454.76 462.96L453.9 464.91L452.97 466.88L451.98 468.88L450.92 470.9L449.78 472.97L448.56 475.09L447.27 477.26L445.91 479.49L444.47 481.8L442.94 484.2L441.34 486.68L439.64 489.26L437.87 491.96L436.59 493.89L435.38 495.74L434.22 497.53L433.12 499.25L432.08 500.9L431.1 502.51L430.17 504.05L429.29 505.55L428.46 507.01L427.69 508.42L426.96 509.8L426.29 511.15L425.65 512.49L425.07 513.79L424.54 515.08L424.05 516.36L423.6 517.63L423.18 518.89L422.83 520.16L422.49 521.44L422.21 522.73L421.96 524.04L421.74 525.36L421.57 526.71L421.42 528.09L421.31 529.49L421.23 530.94L421.18 532.44L421.17 533.97L421.18 535.57L421.21 537.22L421.27 538.92L421.37 540.69L421.49 542.54L421.62 544.45L421.78 546.46L421.96 548.54L422.16 550.7L422.38 552.97L422.62 555.33L422.71 556.38L422.81 557.42L422.9 558.45L422.99 559.47L423.06 560.48L423.15 561.48L423.23 562.47L423.3 563.44L423.37 564.4L423.45 565.34L423.51 566.28L423.58 567.2L423.63 568.09L423.69 568.96L423.74 569.81L423.79 570.66L423.83 571.47L423.88 572.26L423.92 573.03L423.95 573.79L423.97 574.5L424 575.2L424.02 575.87L424.04 576.51L424.05 577.12L424.07 577.71L424.07 578.26L424.07 578.79L424.06 579.27L424.05 579.74L424.04 580.16L424.03 580.55L424 580.91L423.97 581.22L423.95 581.51L423.9 581.74L423.87 581.96L423.82 582.12L423.77 582.24L423.7 582.32L423.66 582.39L423.58 582.46L423.5 582.53L423.41 582.6L423.3 582.68L423.18 582.76L423.05 582.85L422.91 582.93L422.76 583.01L422.59 583.1L422.42 583.19L422.03 583.38L421.62 583.56L421.4 583.67L421.16 583.76L420.92 583.86L420.67 583.97L420.42 584.06L420.16 584.16L419.88 584.26L419.6 584.37L419.33 584.46L418.74 584.67L418.44 584.77L418.13 584.86L417.83 584.96L417.51 585.07L417.19 585.16L416.87 585.26L416.55 585.35L416.21 585.45L415.88 585.54L415.54 585.64L415.21 585.73L414.87 585.81L414.53 585.91L414.19 585.99L413.65 586.13L413.12 586.26L412.63 586.38L412.15 586.51L411.71 586.61L411.27 586.72L410.86 586.81L410.48 586.91L410.12 586.98L409.77 587.06L409.45 587.12L409.14 587.18L408.58 587.27L408.33 587.3L408.09 587.33L407.87 587.35L407.66 587.35L407.48 587.35L407.31 587.35L406.99 587.3L406.86 587.26L406.74 587.21L406.63 587.16L406.53 587.1L406.44 587.03L406.36 586.95L406.3 586.86L406.19 586.65L406.11 586.41L406.08 586.27L406.07 586.13L406.04 585.97L406.03 585.63L406.03 585.25L406.05 585.11L406.06 584.93L406.06 584.73L406.06 584.48L406.07 584.21L406.07 583.9L406.07 583.56L406.08 583.17L406.08 582.77L406.08 582.33L406.08 581.86L406.08 581.36L406.09 580.84L406.09 580.29L406.08 579.71L406.09 579.11L406.08 578.48L406.07 577.84L406.07 577.15L406.06 576.46L406.06 575.74L406.06 575.01L406.05 574.26L406.05 573.48L406.04 572.69L406.04 571.88L406.03 571.06L406.04 570.22L406.03 569.37L406.03 568.5L406.01 566.73L406 565.82L406.01 564.92L406 563.99L406 563.06L405.99 562.13L405.98 561.18L405.99 560.24L405.98 559.28L405.94 556.06L405.92 552.94L405.91 549.94L405.92 547.04L405.94 544.25L405.97 541.55L406.02 538.94L406.09 536.41L406.18 533.98L406.28 531.61L406.4 529.32L406.55 527.1L406.72 524.94L406.91 522.84L407.13 520.8L407.37 518.82L407.63 516.86L407.92 514.96L408.24 513.09L408.59 511.25L408.96 509.45L409.36 507.65L409.8 505.89L410.26 504.13L410.76 502.39L411.29 500.64L411.86 498.91L412.46 497.16L413.1 495.4L413.77 493.65L414.48 491.85L415.22 490.05L416.01 488.21L416.85 486.35L417.72 484.44L418.63 482.5L419.59 480.5L420.59 478.46L421.63 476.37L422.73 474.21L423.55 472.55L424.39 470.88L425.21 469.2L426.01 467.51L426.82 465.8L427.62 464.09L428.42 462.36L429.2 460.65L429.97 458.92L430.72 457.2L431.47 455.47L432.2 453.75L432.92 452.03L433.64 450.33L434.33 448.62L435.01 446.94L435.68 445.26L436.95 441.95L437.56 440.32L438.15 438.71L438.73 437.13L439.29 435.57L439.82 434.03L440.33 432.52L440.83 431.03L441.3 429.59L441.75 428.17L442.17 426.79L442.57 425.44L442.94 424.13L443.29 422.86L443.61 421.63L443.9 420.44L444.17 419.3L444.41 418.21L444.62 417.17L444.79 416.19L444.94 415.24L445.07 414.36L445.18 413.23L445.27 412.09L445.35 410.92L445.42 409.74L445.47 408.55L445.5 407.34L445.52 406.13L445.52 404.9L445.51 403.65L445.49 402.41L445.44 401.16L445.39 399.89L445.32 398.62L445.23 397.35L445.14 396.07L445.02 394.8L444.89 393.51L444.75 392.22L444.59 390.93L444.43 389.65L444.24 388.37L444.04 387.08L443.83 385.8L443.6 384.53L443.36 383.26L443.1 381.99L442.85 380.73L442.27 378.25L441.97 377.02L441.65 375.8L441.32 374.58L440.97 373.39L440.62 372.2L440.24 371.03L439.87 369.87L439.48 368.74L439.07 367.62L438.66 366.52L438.23 365.43L433.02 352.45L427.02 367.65L426.61 368.66L426.22 369.62L425.85 370.55L425.5 371.41L425.16 372.24L424.84 373.01L424.53 373.74L424.24 374.44L423.97 375.09L423.7 375.69L423.46 376.25L423.23 376.78L423.01 377.26L422.8 377.71L422.62 378.12L422.44 378.49L422.27 378.82L422.12 379.12L421.97 379.38L421.84 379.61L421.72 379.8L421.61 379.96L421.49 380.1L421.4 380.19L421.31 380.25L421.23 380.28L421.16 380.29L421.1 380.26L421.03 380.21L420.98 380.13L420.94 380.02L420.89 379.89L420.86 379.73L420.82 379.54L420.79 379.34L420.77 379.1L420.74 378.85L420.72 378.57L420.7 378.27L420.68 377.96L420.68 377.73L420.69 377.48L420.71 377.22L420.74 376.9L420.78 376.58L420.82 376.23L420.87 375.84L420.94 375.45L421.01 375.02L421.08 374.58L421.17 374.11L421.26 373.62L421.36 373.11L421.46 372.57L421.57 372.03L421.69 371.47L421.82 370.88L422.09 369.67L422.39 368.4L422.55 367.75L422.71 367.08L422.87 366.39L423.05 365.71L423.23 365.01L423.42 364.3L423.6 363.58L423.99 362.13L424.19 361.38L424.39 360.65L424.6 359.89L424.81 359.14L425.25 357.63L425.47 356.87L425.7 356.11L425.92 355.35L426.15 354.59L426.52 353.34L426.89 352.13L427.23 350.97L427.56 349.86L427.86 348.8L428.16 347.78L428.44 346.8L428.7 345.85L428.94 344.94L429.17 344.06L429.38 343.21L429.59 342.39L429.78 341.59L429.96 340.82L430.11 340.06L430.27 339.32L430.41 338.6L430.53 337.89L430.65 337.18L430.76 336.49L430.93 335.1L431.01 334.41L431.07 333.72L431.12 333.02L431.17 332.31L431.2 331.6L431.23 330.87L431.26 330.13L431.27 329.37L431.28 328.58L431.27 327.78L431.27 326.95L431.26 326.08L431.24 325.19L431.22 324.28L431.19 323.32L431.16 322.32L431.12 321.28L431.08 320.2L431.02 318.85L430.99 317.55L430.95 316.27L430.94 315.03L430.93 313.84L430.94 312.66L430.96 311.52L431.01 310.4L431.06 309.3L431.14 308.22L431.23 307.17L431.34 306.12L431.47 305.09L431.62 304.07L431.8 303.05L431.98 302.05L432.2 301.04L432.44 300.03L432.71 299.02L433 298L433.32 296.98L433.65 295.95L434.02 294.89L434.42 293.83L434.85 292.74L435.31 291.64L435.79 290.51L436.31 289.35L436.86 288.16L437.44 286.95L438.07 285.7L438.71 284.42L439.4 283.09L440.12 281.72L440.88 280.31L441.67 278.85L442.51 277.34L443.39 275.78L444.29 274.17L445.26 272.5L445.58 271.92L445.9 271.32L446.23 270.69L446.57 270.04L446.93 269.37L447.28 268.67L447.65 267.95L448.02 267.21L448.4 266.45L448.79 265.67L449.17 264.88L449.97 263.25L450.36 262.4L450.77 261.55L451.17 260.69L451.99 258.93L452.41 258.04L452.83 257.14L453.23 256.23L454.47 253.48L454.87 252.56L455.29 251.63L456.09 249.79L456.48 248.87L457.64 246.13L458.01 245.23L458.39 244.33L458.74 243.44L459.1 242.57L459.45 241.7L459.78 240.85L460.11 240L460.44 239.18L461.08 237.48L461.7 235.82L462.29 234.22L462.86 232.67L463.4 231.16L463.91 229.69L464.4 228.27L464.86 226.88L465.29 225.54L465.69 224.24L466.07 222.98L466.43 221.75L466.76 220.56L467.06 219.39L467.34 218.27L467.59 217.17L467.83 216.1L468.03 215.06L468.21 214.04L468.37 213.07L468.51 212.09L468.61 211.15L468.7 210.23L468.77 209.33L468.81 208.45L468.82 207.58L468.81 206.73L468.79 205.88L468.74 205.07L468.67 204.25L468.58 203.45L468.46 202.65L468.33 201.86L468.17 201.08L468 200.31L467.8 199.52L467.58 198.76L467.34 197.99L467.09 197.21L466.82 196.43L466.62 195.93L466.39 195.4L466.14 194.86L465.88 194.31L465.58 193.75L465.27 193.18L464.94 192.6L464.6 192.01L464.23 191.41L463.85 190.82L463.46 190.22L463.06 189.61L462.21 188.4L461.31 187.19L460.86 186.6L460.4 186.01L459.92 185.43L459.44 184.85L458.97 184.29L458.48 183.73L457.99 183.19L457.5 182.65L457.02 182.13L456.53 181.63L456.05 181.15L455.57 180.68L455.09 180.23L454.62 179.8L454.16 179.4L453.7 179.02L453.26 178.66L452.81 178.32L452.38 178.01L451.96 177.74L451.56 177.49L451.18 177.27L450.79 177.09L450.43 176.94L450.33 176.89L450.13 176.81L450.03 176.76L449.94 176.72L449.86 176.68L449.78 176.63L449.7 176.58L449.62 176.53L449.47 176.43L449.28 176.28L449.23 176.23L449.17 176.18L449.07 176.07L448.99 175.97L448.96 175.91L448.92 175.86L448.88 175.76L448.83 175.6L448.82 175.5L448.83 175.44L448.84 175.35L448.88 175.26L448.97 175.11L449.01 175.08L449.06 175.04L449.1 175L449.27 174.91L449.45 174.86L449.67 174.83L449.89 174.82L450.16 174.85L450.44 174.9L450.74 174.98L451.06 175.08L451.4 175.2L451.75 175.34L452.13 175.51L452.51 175.7L452.91 175.91L453.31 176.13L453.73 176.37L454.16 176.63L454.6 176.9L455.04 177.19L455.48 177.49L455.95 177.82L456.39 178.14L456.86 178.49L457.31 178.84L458.22 179.57L458.67 179.95L459.12 180.34L459.57 180.73L460 181.13L460.43 181.53L460.85 181.94L461.25 182.35L461.64 182.76L462.02 183.17L462.39 183.58L462.74 184.01L463.07 184.41L463.39 184.82L463.69 185.23L463.95 185.63L464.18 185.95L464.38 186.27L464.57 186.56L464.75 186.83L464.92 187.1L465.08 187.34L465.23 187.56L465.38 187.77L465.5 187.97L465.64 188.15L465.75 188.31L465.85 188.46L465.96 188.59L466.05 188.72L466.13 188.82L466.21 188.9L466.28 188.97L466.34 189.03L466.4 189.06L466.45 189.09L466.49 189.1L466.53 189.1L466.56 189.08L466.6 189.04L466.61 189L466.63 188.94L466.64 188.86L466.64 188.76L466.65 188.66L466.65 188.54L466.64 188.4L466.63 188.26L466.62 188.1L466.61 187.93L466.58 187.74L466.57 187.53L466.54 187.32L466.51 187.09L466.49 186.84L466.45 186.59L466.39 186.12L466.3 185.65L466.19 185.15L466.06 184.65L465.91 184.12L465.73 183.58L465.54 183.03L465.33 182.46L465.09 181.89L464.84 181.3L464.58 180.7L464.3 180.1L463.99 179.5L463.68 178.89L463.36 178.26L462.66 177.02L462.29 176.4L461.91 175.77L461.52 175.14L460.71 173.9L460.29 173.29L459.42 172.07L458.97 171.48L458.52 170.89L458.06 170.31L457.6 169.74L457.14 169.18L456.66 168.64L456.19 168.11L455.72 167.59L455.24 167.09L454.76 166.6L454.27 166.13L453.8 165.68L453.32 165.26L452.83 164.85L452.36 164.46L451.73 163.97L451.1 163.49L450.48 163.03L449.86 162.57L449.23 162.13L448.61 161.7L447.34 160.88L446.72 160.49L446.08 160.12L445.45 159.76L444.82 159.41L443.54 158.75L442.91 158.45L442.28 158.16L441.64 157.88L441.01 157.61L440.37 157.36L439.74 157.11L439.11 156.89L438.47 156.69L437.84 156.49L437.21 156.31L436.58 156.14L435.96 155.98L434.7 155.72L434.07 155.61L433.45 155.51L432.84 155.43L432.22 155.36L430.99 155.27L430.38 155.25L429.77 155.24L429.16 155.25L428.57 155.27L427.96 155.3L427.37 155.35L426.53 155.45L425.69 155.59L424.87 155.74L424.04 155.92L423.23 156.14L422.42 156.39L421.61 156.66L420.8 156.96L419.99 157.3L419.18 157.68L418.36 158.1L417.54 158.55L416.71 159.04L415.87 159.58L415.02 160.15L414.16 160.77L413.29 161.43L412.4 162.14L411.49 162.9L410.57 163.71L409.63 164.56L408.68 165.47L407.69 166.43L406.69 167.44L405.66 168.51L404.59 169.64L403.52 170.82L402.4 172.05L401.26 173.36L400.08 174.73L398.87 176.15L397.63 177.65L396.35 179.21L395.02 180.84L393.66 182.53L392.26 184.29L390.82 186.12L389.33 188.03L387.79 190.02L386.22 192.07L384.58 194.18L382.97 196.25L381.36 198.28L379.77 200.26L378.19 202.2L376.61 204.1L375.03 205.96L373.47 207.8L371.9 209.61L370.33 211.38L368.75 213.12L367.17 214.84L365.59 216.53L363.99 218.21L362.38 219.86L360.75 221.5L359.1 223.13L357.44 224.74L355.75 226.34L354.04 227.93L352.3 229.52L350.53 231.1L348.73 232.68L346.9 234.25L345.03 235.83L343.12 237.41L341.17 238.99L339.19 240.59L337.15 242.2L335.07 243.82L332.94 245.45L330.76 247.1L328.53 248.76L326.23 250.46L323.88 252.16L321.47 253.9L319 255.66L316.45 257.45L313.86 259.27L311.18 261.12L310.62 261.51L310.06 261.89L309.49 262.29L308.91 262.69L308.32 263.09L307.73 263.51L307.13 263.93L305.92 264.77L304.7 265.64L303.45 266.53L302.84 266.97L302.22 267.41L301.61 267.86L301 268.29L299.77 269.18L299.16 269.62L297.97 270.5L297.37 270.93L296.79 271.36L296.21 271.78L295.64 272.2L295.09 272.62L294.53 273.02L293.99 273.42L293.46 273.82L292.94 274.2L292.44 274.58L291.95 274.96L291.46 275.31L291 275.67L290.55 276L290.12 276.33L289.7 276.65L289.31 276.95L288.92 277.24L288.17 277.83L287.45 278.36L286.77 278.87L286.11 279.33L285.51 279.76L284.92 280.14L284.38 280.49L283.87 280.8L283.39 281.07L282.94 281.3L282.54 281.51L282.17 281.67L281.83 281.81L281.54 281.9L281.28 281.96L281.06 281.99L280.87 281.99L280.72 281.94L280.6 281.87L280.52 281.76L280.48 281.62L280.48 281.46L280.51 281.25L280.59 281.03L280.7 280.76L280.86 280.48L281.05 280.16L281.28 279.82L281.54 279.44L281.86 279.03L282.2 278.6L282.59 278.15L283.02 277.65L283.49 277.14L283.99 276.61L284.54 276.04L285.14 275.46L285.77 274.84L286.44 274.2L287.16 273.55L287.41 273.31L287.67 273.07L287.93 272.83L288.18 272.59L288.44 272.34L288.68 272.1L289.18 271.6L289.43 271.36L289.67 271.11L289.92 270.87L290.16 270.62L290.39 270.37L290.62 270.13L290.85 269.89L291.07 269.64L291.29 269.4L291.72 268.92L291.93 268.69L292.12 268.46L292.51 268.01L292.87 267.57L293.2 267.15L293.35 266.95L293.51 266.74L293.65 266.55L293.78 266.36L293.91 266.18L294.02 266L294.14 265.83L294.24 265.66L294.32 265.5L294.48 265.21L294.54 265.08L294.75 264.55L294.86 264.18L294.92 264.01L294.96 263.85L294.99 263.7L295.03 263.4L295.04 263.26L295.01 263.01L294.99 262.88L294.91 262.66L294.85 262.56L294.78 262.44L294.69 262.35L294.6 262.26L294.49 262.16L294.23 261.98L294.07 261.89L293.91 261.81L293.73 261.72L293.09 261.47L292.83 261.39L292.57 261.3L292.29 261.21L291.99 261.13L291.66 261.05L291.33 260.95L290.97 260.86L290.59 260.76L290.19 260.67L289.78 260.57L289.34 260.48L288.88 260.36L287.52 260.03L286.22 259.71L284.97 259.39L283.76 259.1L282.62 258.82L281.52 258.54L280.48 258.27L279.48 258.02L278.52 257.78L277.62 257.54L276.75 257.31L275.93 257.09L275.13 256.89L274.4 256.69L273.7 256.49L273.03 256.29L272.4 256.11L271.8 255.94L271.24 255.76L270.71 255.59L270.21 255.44L269.74 255.28L269.31 255.13L268.16 254.69L267.82 254.54L267.51 254.4L267.22 254.25L266.95 254.11L266.7 253.98L266.47 253.83L266.25 253.7L265.86 253.41L265.68 253.27L265.52 253.12L265.23 252.82L265.09 252.66L264.99 252.53L264.9 252.39L264.82 252.27L264.77 252.16L264.74 252.03L264.7 251.93L264.71 251.82L264.72 251.72L264.76 251.63L264.82 251.54L264.89 251.45L264.99 251.37L265.11 251.3L265.25 251.22L265.42 251.16L265.61 251.09L265.82 251.04L266.06 250.99L266.32 250.95L266.6 250.9L266.93 250.87L267.26 250.83L267.63 250.81L268.03 250.78L268.46 250.76L268.91 250.75L269.4 250.74L269.9 250.73L270.45 250.73L271.02 250.74L271.63 250.74L272.27 250.76L272.94 250.78L273.65 250.8L274.39 250.82L279.25 251.04L279.87 251.08L281.12 251.12L281.73 251.15L282.93 251.21L283.51 251.23L284.09 251.25L285.22 251.3L285.77 251.32L286.3 251.33L286.83 251.36L287.35 251.38L287.86 251.39L288.82 251.43L289.28 251.45L289.73 251.46L290.15 251.48L290.57 251.48L290.97 251.49L291.36 251.51L292.07 251.52L292.39 251.52L292.7 251.53L292.99 251.53L293.26 251.53L293.5 251.53L293.73 251.53L293.93 251.53L294.11 251.53L294.27 251.52L294.4 251.51L294.5 251.5L294.59 251.48L294.65 251.47L294.79 251.4L294.88 251.32L294.97 251.2L295.06 251.04L295.13 250.86L295.2 250.64L295.27 250.4L295.33 250.12L295.38 249.83L295.43 249.51L295.47 249.17L295.5 248.81L295.53 248.43L295.56 248.03L295.57 247.62L295.59 246.77L295.58 246.32L295.57 245.41L295.55 244.94L295.5 244.01L295.47 243.54L295.43 243.08L295.4 242.61L295.35 242.15L295.3 241.7L295.24 241.26L295.18 240.83L295.12 240.41L294.97 239.62L294.88 239.25L294.8 238.9L294.72 238.57L294.62 238.25L294.53 237.97L294.43 237.7L294.32 237.47L294.22 237.28L294.11 237.09L294 236.92L293.88 236.75L293.64 236.45L293.51 236.3L293.37 236.17L293.21 236.04L293.05 235.92L292.87 235.8L292.69 235.7L292.49 235.6L292.26 235.5L292.03 235.41L291.78 235.33L291.51 235.25L291.22 235.17L290.91 235.1L290.58 235.04L290.23 234.98L289.84 234.93L289.44 234.88L289.01 234.83L288.55 234.79L288.06 234.76L287.55 234.73L287 234.69L286.42 234.68L285.81 234.65L285.16 234.63L284.47 234.61L283.76 234.6L283 234.58L282.21 234.58L281.37 234.57L280.49 234.56L279.59 234.56L278.62 234.56L277.62 234.56L275.15 234.57L272.76 234.57L270.43 234.55L268.17 234.5L265.96 234.44L263.81 234.37L261.73 234.26L259.7 234.15L257.72 234L255.82 233.84L253.96 233.67L252.15 233.46L250.41 233.25L248.71 233L247.07 232.74L245.48 232.45L243.94 232.15L242.45 231.81L241 231.46L239.61 231.08L238.26 230.69L236.95 230.27L235.69 229.82L234.47 229.35L233.3 228.86L232.16 228.34L231.08 227.8L230.02 227.23L229.01 226.64L228.04 226.02L227.1 225.38L226.2 224.71L225.33 224.01L224.5 223.29L223.7 222.54L222.94 221.77L222.19 220.97L221.5 220.14L220.81 219.28L220.17 218.39L219.81 217.9L219.64 217.66L219.47 217.42L219.31 217.18L219.15 216.95L218.99 216.71L218.69 216.26L218.4 215.82L218.26 215.6L218.12 215.4L217.75 214.79L217.64 214.6L217.52 214.41L217.42 214.23L217.22 213.89L217.13 213.73L217.04 213.57L216.9 213.28L216.83 213.14L216.62 212.67L216.55 212.48L216.51 212.32L216.5 212.25L216.49 212.16L216.51 212.11L216.53 212.09L216.55 212.07L216.57 212.07L216.61 212.07L216.65 212.08L216.72 212.1L217.2 212.29L217.34 212.35L217.48 212.4L217.63 212.47L217.98 212.63L218.16 212.72L218.35 212.81L218.55 212.91L218.76 213.02L219.21 213.23L219.45 213.35L219.68 213.48L219.94 213.6L220.18 213.73L220.44 213.86L220.71 214L221.26 214.31L221.55 214.46L221.84 214.61L222.13 214.78L222.43 214.95L222.73 215.11L223.34 215.46L223.97 215.82L224.27 216.01L224.59 216.21L224.92 216.39L226.29 217.18L227.68 217.93L229.09 218.67L230.54 219.36L231.99 220.04L233.46 220.69L234.97 221.31L236.47 221.9L238 222.47L239.54 223L241.09 223.51L242.65 223.99L244.2 224.44L245.77 224.85L247.35 225.26L248.92 225.61L250.5 225.94L252.07 226.24L253.65 226.51L255.21 226.75L256.77 226.96L258.33 227.14L259.87 227.29L261.39 227.4L262.91 227.48L264.42 227.53L265.91 227.54L267.38 227.54L268.82 227.48L270.25 227.4L271.66 227.29L273.04 227.14L274.4 226.96L275.72 226.74L277.02 226.48L278.28 226.19L279.52 225.87L280.72 225.52L281.87 225.12L282.99 224.69L283.63 224.42L284.27 224.14L284.91 223.84L286.18 223.21L286.81 222.86L287.44 222.51L288.07 222.14L288.68 221.76L289.29 221.38L290.48 220.59L291.06 220.19L291.63 219.77L292.18 219.35L292.73 218.93L293.26 218.5L293.78 218.08L294.27 217.63L294.76 217.21L295.22 216.78L295.66 216.35L296.09 215.93L296.49 215.5L296.86 215.08L297.23 214.67L297.56 214.26L297.86 213.85L298.14 213.46L298.4 213.08L298.62 212.7L298.82 212.33L298.97 211.99L299.1 211.64L299.21 211.31L299.27 210.99L299.3 210.69L299.3 210.42L299.26 210.15L299.18 209.89L299.13 209.83L299.03 209.74L298.9 209.64L298.72 209.53L298.51 209.39L298.26 209.24L297.97 209.07L297.63 208.89L297.26 208.69L296.86 208.48L296.42 208.26L295.94 208.02L295.43 207.76L294.88 207.49L294.31 207.22L293.7 206.93L293.07 206.63L292.41 206.32L291.72 205.99L291 205.67L290.25 205.32L289.48 204.96L288.68 204.61L287.86 204.23L287.03 203.86L286.16 203.47L285.27 203.07L284.37 202.68L283.44 202.28L282.5 201.86L281.54 201.44L280.57 201.02L279.58 200.59L278.57 200.16L277.54 199.73L276.52 199.28L275.47 198.85L274.41 198.39L272.27 197.5L271.09 197.01L269.92 196.53L268.79 196.04L267.66 195.56L266.53 195.09L265.44 194.62L264.36 194.15L263.3 193.7L262.26 193.25L261.24 192.8L260.23 192.35L259.25 191.92L258.3 191.49L257.36 191.07L256.45 190.65L255.55 190.24L254.68 189.84L253.84 189.44L253.02 189.07L252.22 188.69L251.45 188.32L250.71 187.96L249.99 187.61L249.3 187.27L248.65 186.95L248.01 186.62L247.41 186.32L246.84 186.02L246.3 185.73L245.78 185.46L245.31 185.19L244.86 184.94L244.45 184.69L244.07 184.47L243.73 184.25L243.41 184.04L243.14 183.86L242.89 183.68L242.69 183.52L242.52 183.37L242.29 183.15L242.06 182.92L241.84 182.71L241.65 182.51L241.46 182.33L241.29 182.14L241.13 181.97L240.97 181.81L240.83 181.65L240.71 181.5L240.6 181.36L240.49 181.23L240.4 181.1L240.33 180.97L240.27 180.86L240.21 180.74L240.17 180.63L240.13 180.42L240.13 180.33L240.15 180.24L240.17 180.14L240.21 180.04L240.25 179.96L240.31 179.87L240.38 179.78L240.46 179.69L240.68 179.51L240.79 179.42L240.93 179.33L241.08 179.23L241.24 179.14L241.41 179.04L241.59 178.93L241.79 178.82L242 178.71L242.22 178.6L242.7 178.35L242.95 178.22L243.18 178.11L243.41 177.99L243.62 177.87L243.82 177.76L244.19 177.55L244.34 177.45L244.5 177.35L244.65 177.25L244.78 177.16L245.02 176.96L245.21 176.77L245.3 176.67L245.37 176.57L245.44 176.46L245.49 176.36L245.57 176.15L245.61 176.03L245.62 175.92L245.64 175.79L245.64 175.66L245.63 175.52L245.63 175.38L245.6 175.24L245.57 175.08L245.54 174.92L245.5 174.75L245.45 174.57L245.4 174.39L245.33 174.19L245.27 173.99L245.19 173.77L245.11 173.55L245.02 173.31L244.93 173.06L244.83 172.8L244.68 172.43L244.56 172.07L244.45 171.74L244.34 171.42L244.25 171.14L244.18 170.88L244.11 170.64L244.06 170.43L244.04 170.26L244.02 170.09L244.02 169.95L244.04 169.85L244.07 169.77L244.13 169.71L244.2 169.67L244.28 169.67L244.39 169.7L244.53 169.75L244.67 169.83L244.84 169.94L245.03 170.07L245.24 170.24L245.46 170.43L245.71 170.66L245.98 170.91L246.28 171.19L246.61 171.49L246.94 171.84L247.31 172.21L247.71 172.61L248.11 173.04L248.56 173.5L249.02 174L249.52 174.52L250.04 175.08L250.58 175.66L251.15 176.28L251.76 176.94L252.39 177.63L253.37 178.7L253.69 179.04L254.01 179.39L254.34 179.73L254.67 180.07L255 180.41L255.33 180.75L255.65 181.08L255.99 181.42L256.32 181.74L256.64 182.06L256.97 182.38L257.29 182.7L257.61 183L257.92 183.31L258.24 183.6L258.56 183.9L258.87 184.18L259.17 184.46L259.47 184.73L259.77 184.99L260.34 185.49L260.61 185.73L261.16 186.18L261.41 186.39L261.91 186.78L262.14 186.96L262.36 187.13L262.58 187.29L262.79 187.44L262.99 187.56L263.17 187.69L263.34 187.79L263.51 187.89L263.67 187.98L263.81 188.04L264.34 188.25L264.52 188.3L264.7 188.35L264.85 188.39L265 188.43L265.14 188.44L265.26 188.46L265.37 188.45L265.47 188.44L265.56 188.42L265.65 188.38L265.72 188.33L265.77 188.27L265.82 188.19L265.85 188.11L265.87 188L265.88 187.88L265.88 187.75L265.86 187.6L265.83 187.43L265.8 187.25L265.75 187.06L265.69 186.84L265.61 186.61L265.52 186.36L265.42 186.08L265.31 185.8L265.18 185.49L265.05 185.16L264.89 184.82L264.74 184.45L264.56 184.06L264.37 183.65L264.17 183.21L263.95 182.76L263.72 182.29L263.48 181.79L263.22 181.26L262.96 180.72L262.62 180.01L262.29 179.35L261.98 178.69L261.69 178.07L261.41 177.47L260.67 175.82L260.46 175.31L260.26 174.84L260.07 174.38L259.92 173.95L259.76 173.55L259.63 173.17L259.51 172.83L259.41 172.51L259.33 172.22L259.26 171.96L259.21 171.71L259.17 171.51L259.16 171.32L259.16 171.18L259.17 171.05L259.2 170.96L259.25 170.89L259.31 170.86L259.4 170.85L259.5 170.88L259.61 170.93L259.74 171.02L259.89 171.14L260.05 171.29L260.24 171.47L260.66 171.93L260.89 172.21L261.15 172.53L261.42 172.88L261.7 173.25L262.01 173.67L262.23 173.97L262.34 174.13L262.46 174.29L262.59 174.45L262.71 174.62L262.96 174.95L263.08 175.13L263.22 175.3L263.35 175.49L263.48 175.65L263.61 175.84L263.75 176.01L264.01 176.37L264.16 176.56L264.29 176.73L264.56 177.1L264.7 177.28L264.84 177.45L265.11 177.82L265.24 177.99L265.38 178.17L265.5 178.34L265.64 178.51L265.77 178.68L265.9 178.85L266.02 179.02L266.15 179.19L266.28 179.34L266.39 179.51L266.51 179.66L266.62 179.81L266.74 179.96L266.86 180.1L266.96 180.25L267.06 180.38L267.84 181.39L268.68 182.38L269.57 183.34L270.49 184.28L271.47 185.2L272.47 186.09L273.53 186.96L274.61 187.8L275.73 188.61L276.88 189.39L278.04 190.15L279.25 190.88L280.46 191.57L281.69 192.22L282.94 192.85L284.19 193.44L285.46 193.99L286.74 194.52L288.02 194.99L289.29 195.44L290.57 195.84L291.84 196.21L293.09 196.52L294.34 196.81L295.57 197.05L296.79 197.24L297.99 197.39L299.15 197.49L300.3 197.55L301.42 197.55L302.51 197.51L303.56 197.43L304.58 197.28L305.55 197.09L306.48 196.84L307.36 196.53L308.2 196.19L308.99 195.78L309.72 195.31L310.39 194.78L310.5 194.68L310.62 194.56L310.74 194.43L310.88 194.27L311.02 194.09L311.18 193.9L311.33 193.69L311.5 193.47L311.67 193.22L311.85 192.97L312.04 192.69L312.22 192.41L312.42 192.1L312.62 191.79L312.83 191.46L313.05 191.11L313.26 190.76L313.48 190.39L313.71 190.02L313.94 189.63L314.17 189.23L314.41 188.82L314.65 188.4L314.89 187.96L315.14 187.53L315.38 187.09L315.64 186.64L315.89 186.17L316.15 185.71L316.4 185.24L316.66 184.75L316.92 184.28L317.18 183.78L317.44 183.29L317.7 182.8L317.95 182.29L318.22 181.79L318.98 180.26L319.73 178.8L320.45 177.39L321.16 176.04L321.86 174.76L322.55 173.52L323.23 172.34L323.9 171.19L324.55 170.11L325.21 169.07L325.86 168.08L326.51 167.13L327.15 166.23L327.8 165.37L328.45 164.56L329.1 163.8L329.75 163.06L330.42 162.37L331.09 161.72L331.76 161.09L332.45 160.51L333.15 159.95L333.87 159.44L334.6 158.96L335.35 158.5L336.11 158.08L336.89 157.69L337.7 157.32L338.52 156.98L339.37 156.66L340.24 156.36L341.15 156.09L342.08 155.84L343.04 155.6L344.03 155.38L345.05 155.18L346.11 155.01L347.2 154.83L348.34 154.68L349.5 154.54L350.71 154.41L351.34 154.35L352.53 154.24L353.1 154.17L353.67 154.1L354.21 154.02L354.75 153.95L355.27 153.88L355.78 153.8L356.27 153.72L357.23 153.53L357.69 153.45L358.58 153.24L359.02 153.13L359.44 153.02L360.27 152.79L360.67 152.67L361.06 152.53L361.84 152.26L362.21 152.12L362.95 151.8L363.31 151.64L363.68 151.47L364.03 151.3L364.75 150.93L365.8 150.33L366.16 150.11L366.86 149.66L367.21 149.42L367.57 149.18L367.93 148.92L369.4 147.78L370.81 146.6L372.15 145.39L373.42 144.16L374.63 142.89L375.75 141.6L376.82 140.29L377.82 138.97L378.75 137.63L379.6 136.27L380.39 134.9L381.11 133.53L381.76 132.16L382.33 130.78L382.84 129.4L383.27 128.01L383.65 126.64L383.94 125.27L384.16 123.92L384.31 122.57L384.39 121.24L384.41 119.93L384.34 118.64L384.21 117.37L383.99 116.13L383.72 114.92L383.36 113.73L382.93 112.58L382.43 111.46L381.85 110.39L381.21 109.36L380.48 108.36L379.68 107.41L378.81 106.51L377.86 105.66L376.84 104.86L375.74 104.13L374.57 103.44L373.32 102.83L372 102.28L371.28 102L370.96 101.87L370.35 101.63L370.08 101.52L369.82 101.4L369.58 101.3L369.35 101.2L369.15 101.11L368.96 101.01L368.79 100.92L368.63 100.84L368.49 100.76L368.37 100.68L368.27 100.6L368.17 100.52L368.1 100.45L368.05 100.38L368 100.3L367.97 100.23L367.96 100.15L367.97 100.08L367.99 100.01L368.02 99.94L368.07 99.86L368.13 99.79L368.21 99.71L368.41 99.55L368.53 99.46L368.67 99.38L368.82 99.3L368.97 99.2L369.15 99.11L369.35 99.01L369.54 98.91L369.76 98.8L370 98.69L370.23 98.57L370.62 98.36L370.99 98.14L371.34 97.93L371.67 97.69L371.96 97.45L372.25 97.2L372.5 96.94L372.74 96.67L372.96 96.41L373.15 96.13L373.32 95.85L373.47 95.55L373.6 95.25L373.7 94.94L373.79 94.63L373.85 94.31L373.89 93.98L373.92 93.64L373.9 93.3L373.88 92.95L373.84 92.59L373.77 92.24L373.68 91.86L373.57 91.5L373.44 91.13L373.28 90.73L373.1 90.34L372.91 89.96L372.69 89.55L372.44 89.14L372.18 88.73L371.9 88.33L371.58 87.9L371.26 87.47L370.91 87.04L370.54 86.61L370.14 86.17L369.73 85.73L369.29 85.27L368.83 84.82L368.11 84.13L367.39 83.46L366.66 82.83L365.92 82.24L365.17 81.67L364.41 81.14L363.63 80.64L362.84 80.18L362.02 79.76L361.19 79.37L360.32 79L359.43 78.68L358.51 78.39L357.55 78.13L356.58 77.9L355.56 77.71L354.5 77.56L353.4 77.43L352.26 77.33L351.08 77.28L349.85 77.25L348.56 77.26L347.24 77.3L345.86 77.37L344.41 77.48L342.91 77.61L341.35 77.78L339.74 77.99L338.06 78.23L336.3 78.5L334.49 78.79L332.6 79.13L330.63 79.5L328.59 79.89L326.47 80.32L324.27 80.79L322 81.28L319.63 81.8L317.18 82.37L314.64 82.96L310.3 84.01L305.92 85.11L301.53 86.26L297.12 87.46L292.69 88.7L288.25 90L283.81 91.32L279.38 92.69L274.94 94.09L270.54 95.53L266.14 97L261.75 98.51L257.4 100.04L253.09 101.61L248.8 103.18L244.56 104.79L240.38 106.42L236.23 108.07L232.14 109.73L228.12 111.41L224.16 113.1L220.28 114.8L216.47 116.51L212.74 118.22L209.1 119.94L205.55 121.67L202.09 123.39L198.74 125.11L195.5 126.82L192.36 128.52L189.34 130.23L186.45 131.92L183.67 133.59L181.03 135.27L178.53 136.91L176.16 138.54L173.94 140.15L171.88 141.73L169.96 143.29L168.21 144.82L167 145.95L165.83 147.1L164.72 148.27L163.66 149.49L162.63 150.72L161.67 151.99L160.76 153.27L159.89 154.6L159.07 155.96L158.3 157.34L157.57 158.77L156.9 160.22L156.28 161.71L155.7 163.23L155.17 164.8L154.69 166.39L154.25 168.02L153.87 169.7L153.53 171.4L153.24 173.15L152.99 174.93L152.8 176.77L152.65 178.63L152.54 180.55L152.49 182.5L152.48 184.51L152.52 186.55L152.61 188.64L152.74 190.77L152.91 192.94L153.14 195.18L153.4 197.45L153.72 199.77L154.08 202.14L154.49 204.57L154.94 207.04L155.44 209.56L155.98 212.14L156.57 214.77L157.2 217.45L157.59 219.12L158.01 220.77L158.43 222.41L158.87 224.06L159.32 225.7L159.78 227.34L160.25 228.99L160.76 230.64L161.27 232.29L161.8 233.96L162.34 235.65L162.91 237.35L163.49 239.07L164.11 240.81L164.74 242.58L165.4 244.36L166.08 246.19L166.79 248.03L167.53 249.93L168.3 251.85L169.1 253.81L169.93 255.83L170.78 257.87L171.68 259.97L172.6 262.12L173.55 264.32L174.55 266.58L175.59 268.89L176.65 271.27L177.76 273.71L178.91 276.21L180.1 278.78L181.33 281.42L182.6 284.14L183.93 286.93L185.29 289.81L186.7 292.76L188.16 295.79L189.66 298.91L191.21 302.12L193.02 305.88L194.77 309.54L196.47 313.09L198.1 316.54L199.68 319.89L201.22 323.14L202.69 326.3L204.12 329.37L205.49 332.34L206.82 335.24L208.09 338.04L209.32 340.78L210.51 343.44L211.64 346.02L212.75 348.53L213.8 350.98L214.82 353.36L215.79 355.68L216.72 357.95L217.63 360.16L218.49 362.32L219.32 364.42L220.11 366.49L220.88 368.5L221.61 370.48L222.31 372.42L222.98 374.32L223.63 376.21L224.24 378.05L224.83 379.88L225.39 381.67L225.94 383.46L226.46 385.22L226.97 386.97L227.44 388.72L227.9 390.44L228.35 392.18L228.78 393.91L229.19 395.63L229.6 397.38L230.23 400.23L230.83 403.05L231.4 405.84L231.94 408.61L232.44 411.36L232.92 414.1L233.36 416.84L233.77 419.58L234.14 422.33L234.48 425.09L234.8 427.87L235.07 430.67L235.32 433.52L235.54 436.4L235.71 439.34L235.86 442.31L235.98 445.35L236.05 448.46L236.11 451.63L236.13 454.88L236.12 458.21L236.07 461.63L235.98 465.16L235.87 468.78L235.73 472.51L235.55 476.36L235.34 480.31L235.1 484.41L234.82 488.64L234.51 493L234.17 497.51L233.8 502.18L233.39 506.99L232.96 511.98L232.48 517.13L231.98 522.47L231.44 527.98L230.87 533.68L230.26 539.59L229.63 545.7L229.38 548.12L229.12 550.55L228.88 552.99L228.63 555.44L228.4 557.89L228.16 560.33L227.72 565.22L227.51 567.66L227.3 570.08L227.1 572.5L226.91 574.89L226.72 577.28L226.54 579.65L226.36 581.99L226.2 584.3L226.03 586.59L225.88 588.86L225.74 591.1L225.6 593.29L225.47 595.46L225.35 597.59L225.24 599.68L225.12 601.72L225.02 603.72L224.94 605.67L224.86 607.57L224.78 609.42L224.72 611.22L224.67 612.96L224.62 614.63L224.58 616.25L224.56 617.81L224.54 619.29L224.53 620.71L224.53 622.06L224.54 623.33L224.57 624.52L224.6 625.64L224.64 626.69L224.66 627.08L224.68 627.45L224.7 627.81L224.72 628.15L224.73 628.48L224.74 628.78L224.73 629.08L224.74 629.35L224.74 629.62L224.73 630.09L224.7 630.31L224.68 630.51L224.67 630.71L224.63 630.9L224.6 631.07L224.55 631.23L224.51 631.38L224.47 631.52L224.4 631.65L224.35 631.77L224.27 631.88L224.12 632.09L224.02 632.17L223.93 632.26L223.82 632.34L223.71 632.41L223.59 632.48L223.46 632.54L223.33 632.61L223.03 632.71L222.88 632.77L222.7 632.81L222.53 632.86L222.34 632.91L222.15 632.95L221.94 632.99L221.72 633.04L221.49 633.07L221.28 633.09L221.08 633.08L220.89 633.03L220.71 632.96L220.54 632.84L220.39 632.68L220.24 632.48L220.11 632.23L219.98 631.91L219.87 631.54L219.77 631.1L219.68 630.6L219.6 630.02L219.54 629.36L219.48 628.61L219.44 627.78L219.4 626.87L219.37 625.85L219.36 624.73L219.36 623.51L219.37 622.19L219.38 620.74L219.41 619.19L219.44 617.51L219.49 615.7L219.56 613.75L219.63 611.68L219.7 609.46L219.79 607.11L219.9 604.6L220 601.94L220.13 599.12L220.26 596.14L220.39 592.99L220.54 589.68L220.7 586.18L220.87 582.51L221.04 578.66L221.24 574.62L221.36 572.18L221.48 569.73L221.6 567.27L221.85 562.3L221.99 559.81L222.11 557.32L222.38 552.33L222.5 549.85L222.64 547.37L222.77 544.9L222.91 542.45L223.03 540.01L223.17 537.59L223.31 535.2L223.44 532.83L223.57 530.47L223.7 528.16L223.82 525.88L223.96 523.64L224.09 521.42L224.22 519.26L224.34 517.14L224.46 515.06L224.58 513.03L224.71 511.05L224.82 509.13L224.93 507.26L225.05 505.46L225.16 503.71L225.27 502.03L225.37 500.42L225.47 498.89L225.57 497.43L225.66 496.03L225.75 494.73L225.84 493.5L225.92 492.36L226.01 491.31L226.2 488.91L226.39 486.58L226.57 484.32L226.74 482.11L226.9 479.96L227.06 477.87L227.19 475.84L227.32 473.84L227.45 471.91L227.56 470.01L227.66 468.16L227.75 466.36L227.83 464.58L227.91 462.86L227.97 461.16L228.03 459.5L228.07 457.87L228.1 456.26L228.14 454.68L228.15 453.12L228.15 451.6L228.15 450.08L228.14 448.58L228.11 447.09L228.08 445.62L228.04 444.16L227.99 442.7L227.93 441.26L227.78 438.36L227.69 436.9L227.59 435.45L227.48 433.99L227.37 432.52L227.23 431.03L227.1 429.54L226.95 428.03L226.8 426.51L226.63 424.95L226.46 423.38L226.2 421.18L225.93 419.03L225.65 416.93L225.35 414.87L225.05 412.83L224.72 410.82L224.38 408.84L224.02 406.85L223.62 404.88L223.2 402.91L222.76 400.92L222.29 398.94L221.78 396.92L221.24 394.88L220.67 392.81L220.04 390.71L219.38 388.56L218.69 386.36L217.94 384.1L217.14 381.78L216.31 379.38L215.41 376.92L214.46 374.37L213.46 371.73L212.4 369.01L211.27 366.18L210.09 363.24L208.83 360.19L207.52 357.02L206.13 353.73L204.68 350.3L203.15 346.74L201.55 343.03L199.86 339.17L198.1 335.15L196.25 330.98L194.32 326.63L190.21 317.4L188.02 312.51L186.88 309.97L184.62 304.91L183.49 302.38L181.26 297.37L180.16 294.88L179.07 292.41L177.98 289.96L176.92 287.53L175.86 285.12L174.82 282.74L173.78 280.4L172.77 278.08L171.78 275.8L170.8 273.56L169.84 271.35L168.9 269.19L167.99 267.07L167.1 265L166.23 262.97L165.39 261L164.56 259.08L163.77 257.22L163 255.43L162.27 253.69L161.57 252.01L160.89 250.4L160.25 248.87L159.65 247.39L159.07 246L158.54 244.69L158.03 243.45L157.57 242.3L157.14 241.23L156.77 240.25L156.42 239.35L156.12 238.55L155.86 237.85L155.66 237.23L155.16 235.82L154.2 232.97L153.74 231.54L153.28 230.11L152.84 228.66L152.4 227.23L151.98 225.78L151.57 224.33L151.17 222.89L150.77 221.43L150.02 218.54L149.67 217.1L149.31 215.66L148.98 214.22L148.65 212.79L148.34 211.35L148.04 209.94L147.75 208.51L147.46 207.1L147.19 205.71L146.94 204.31L146.69 202.92L146.46 201.54L146.23 200.18L146.02 198.83L145.83 197.49L145.64 196.17L145.47 194.85L145.31 193.56L145.17 192.27L145.03 191.01L144.91 189.75L144.8 188.53L144.71 187.31L144.62 186.11L144.56 184.94L144.5 183.78L144.46 182.65L144.44 181.85L144.43 181.07L144.42 180.31L144.42 179.58L144.41 178.88L144.41 178.19L144.42 177.53L144.44 176.88L144.45 176.25L144.48 175.63L144.5 175.03L144.54 174.45L144.58 173.87L144.63 173.3L144.74 172.2L144.81 171.65L144.89 171.11L145.06 170.03L145.17 169.5L145.27 168.96L145.39 168.42L145.65 167.33L145.79 166.76L145.95 166.2L146.11 165.63L146.27 165.04L146.46 164.44L146.65 163.83L146.86 163.21L147.07 162.56L147.29 161.89L147.53 161.21L147.78 160.5L148.03 159.78L148.3 159.03L148.59 158.26L148.88 157.45L149.2 156.64L149.79 155.1L150.08 154.38L150.35 153.7L150.62 153.02L150.89 152.4L151.14 151.78L151.4 151.2L151.64 150.63L151.88 150.08L152.12 149.56L152.36 149.06L152.6 148.58L152.83 148.11L153.08 147.66L153.55 146.79L153.79 146.38L154.29 145.59L154.54 145.21L154.8 144.84L155.06 144.47L155.33 144.11L155.62 143.75L155.91 143.4L156.21 143.05L156.51 142.69L156.83 142.33L157.17 141.98L157.51 141.61L157.87 141.25L158.23 140.89L158.61 140.51L159.02 140.12L159.43 139.72L159.86 139.32L160.32 138.91L160.78 138.48L161.63 137.73L162.49 136.98L163.38 136.25L164.28 135.52L165.2 134.8L166.14 134.09L167.11 133.38L168.09 132.68L169.11 131.97L170.15 131.27L171.23 130.57L172.32 129.87L173.46 129.18L174.62 128.48L175.81 127.79L177.04 127.1L178.3 126.4L179.6 125.7L180.94 125L182.32 124.3L183.74 123.59L185.19 122.88L186.68 122.16L188.22 121.44L189.82 120.72L191.45 119.97L193.13 119.23L194.86 118.49L196.64 117.72L198.47 116.96L200.35 116.18L202.28 115.39L204.27 114.59L206.32 113.78L208.42 112.94L210.57 112.11L212.8 111.26L215.08 110.39L217.42 109.51L219.82 108.62L221.08 108.16L222.37 107.69L223.69 107.21L225.02 106.72L226.39 106.22L227.77 105.71L229.17 105.19L230.59 104.66L232.02 104.13L233.46 103.59L236.39 102.49L239.35 101.38L242.33 100.26L243.82 99.69L245.31 99.13L246.79 98.57L248.29 98.01L249.76 97.44L251.23 96.88L252.69 96.33L254.14 95.78L255.57 95.23L257 94.69L258.4 94.15L259.78 93.62L261.15 93.1L262.5 92.57L263.81 92.08L265.12 91.57L266.38 91.09L267.62 90.61L268.83 90.15L270.01 89.69L271.15 89.26L272.26 88.83L273.32 88.42L274.35 88.02L276.73 87.08L279.06 86.16L281.35 85.25L283.57 84.39L285.76 83.55L287.9 82.73L289.98 81.94L292.03 81.18L294.03 80.43L295.99 79.71L297.89 79.02L299.77 78.35L301.59 77.7L303.38 77.08L305.13 76.48L306.84 75.9L308.53 75.34L310.16 74.81L311.77 74.3L313.34 73.81L314.88 73.34L316.39 72.89L317.87 72.46L319.32 72.06L320.74 71.67L322.14 71.3L323.5 70.96L324.84 70.62L326.16 70.32L327.45 70.02L328.71 69.76L329.97 69.5L331.19 69.26L332.4 69.05L333.59 68.84L334.76 68.65L335.92 68.49L337.05 68.34L338.18 68.2L339.29 68.07L351.39 66.83L364.66 72.88L365.28 73.15ZM392.91 89.67L392.52 89.76L392.22 89.9L392.01 90.09L391.86 90.32L391.83 90.64L391.86 91.3L391.93 92.27L392.05 93.51L392.22 95.01L392.41 96.72L392.64 98.62L392.9 100.67L393.17 102.85L393.48 105.13L393.79 107.46L394.44 112.23L394.78 114.58L395.11 116.88L395.44 119.09L395.75 121.18L396.05 123.13L396.34 124.9L396.59 126.45L396.82 127.77L397.03 128.81L397.2 129.56L397.32 129.98L397.59 130.38L398.01 130.72L398.56 130.96L399.24 131.15L400.03 131.27L400.92 131.31L401.91 131.28L402.96 131.21L404.09 131.07L405.27 130.88L406.48 130.64L407.72 130.35L408.99 130.01L410.24 129.64L411.5 129.21L412.74 128.76L413.94 128.27L415.09 127.76L416.19 127.21L417.22 126.64L418.17 126.05L419.01 125.45L419.77 124.83L420.39 124.19L420.75 123.76L421.06 123.29L421.35 122.79L421.57 122.26L421.78 121.71L421.94 121.13L422.06 120.55L422.14 119.95L422.19 119.35L422.2 118.74L422.18 118.14L422.11 117.53L422.02 116.94L421.88 116.36L421.72 115.8L421.51 115.27L421.29 114.75L421.02 114.28L420.73 113.83L420.4 113.42L420.03 113.06L419.64 112.74L419.22 112.47L418.76 112.26L418.6 112.19L418.42 112.1L418.22 111.97L418.01 111.83L417.78 111.66L417.54 111.47L417.29 111.25L417.03 111.02L416.75 110.79L416.48 110.53L416.18 110.25L415.89 109.95L415.59 109.65L415.29 109.33L414.97 109.01L414.66 108.66L414.35 108.33L413.41 107.25L413.09 106.88L412.79 106.51L412.48 106.14L412.19 105.77L407.97 100.17L412.87 101.09L413.71 101.22L414.48 101.32L415.16 101.38L415.77 101.41L416.29 101.42L416.73 101.38L417.11 101.34L417.39 101.25L417.61 101.14L417.74 100.99L417.8 100.83L417.78 100.63L417.68 100.41L417.51 100.15L417.26 99.88L416.93 99.56L416.53 99.23L416.05 98.86L415.49 98.48L414.86 98.06L414.16 97.63L413.37 97.16L412.51 96.66L411.59 96.15L410.35 95.51L409.12 94.89L407.93 94.3L406.73 93.75L405.57 93.23L404.43 92.73L403.32 92.27L402.24 91.85L401.19 91.45L400.19 91.09L399.22 90.77L398.3 90.49L397.42 90.25L396.61 90.04L395.84 89.87L395.12 89.74L394.47 89.66L393.88 89.62L393.37 89.62L392.91 89.67Z" id="c4Y1D6VYv"></path><path d="M358.47 101.86C357.08 101.32 355.77 101.45 355.5 102.14C354.86 103.8 365.26 113.21 366.79 112.52C368.33 111.84 361.39 102.98 358.47 101.86Z" id="a2342OXQoc"></path><path d="M358.47 101.86C357.08 101.32 355.77 101.45 355.5 102.14C354.86 103.8 365.26 113.21 366.79 112.52C368.33 111.84 361.39 102.98 358.47 101.86Z" id="b2M7UsL7tk"></path><path d="M435.37 169.73C433.79 169.28 430.3 168.41 427.46 167.96C419.44 166.48 418.35 169.71 426.27 171.48C432.88 172.9 440.89 171.52 435.37 169.73Z" id="c1ScQYlT3Q"></path><path d="M435.37 169.73C433.79 169.28 430.3 168.41 427.46 167.96C419.44 166.48 418.35 169.71 426.27 171.48C432.88 172.9 440.89 171.52 435.37 169.73Z" id="eS5oC5KSv"></path><path d="M332.9 285.37C333.89 285.28 335.08 283.82 335.61 282.44C336.14 281.06 341.77 275.1 348.02 269.22C361.77 256.2 363.32 251.71 350.45 262.04C345.38 266.14 339.84 271.02 338.08 272.72C334.19 276.64 330.48 285.88 332.9 285.37Z" id="c22FA3EhQG"></path><path d="M332.9 285.37C333.89 285.28 335.08 283.82 335.61 282.44C336.14 281.06 341.77 275.1 348.02 269.22C361.77 256.2 363.32 251.71 350.45 262.04C345.38 266.14 339.84 271.02 338.08 272.72C334.19 276.64 330.48 285.88 332.9 285.37Z" id="d1vdSgeEVZ"></path><path d="M325.26 311.89C327.21 312.63 326.97 313.65 324.64 317.69C323.05 320.59 321.98 323.35 322.32 324.12C322.66 324.89 326.64 319.1 331.17 311.44C335.55 303.74 340.33 295.87 341.45 293.76C344.24 289.42 342.49 288.58 337.68 291.99C334.62 294.16 324.7 306.74 323.47 309.92C323.26 310.48 324.01 311.41 325.26 311.89Z" id="b2iSY9uo7a"></path><path d="M325.26 311.89C327.21 312.63 326.97 313.65 324.64 317.69C323.05 320.59 321.98 323.35 322.32 324.12C322.66 324.89 326.64 319.1 331.17 311.44C335.55 303.74 340.33 295.87 341.45 293.76C344.24 289.42 342.49 288.58 337.68 291.99C334.62 294.16 324.7 306.74 323.47 309.92C323.26 310.48 324.01 311.41 325.26 311.89Z" id="b2pP2JV2Ll"></path><path d="M369.64 371.24C374.27 369.53 374.27 369.53 370.27 374.98C368.48 377.16 367.14 380.64 367.07 382.51C367.05 385.85 367.24 385.76 369.43 382.15C375.8 372.18 379.86 362.44 381.79 352.84C383.03 347.11 383.49 342.19 382.94 341.98C382.25 341.71 379.02 347.64 375.53 355.05C372 362.6 368.34 369.64 367.45 370.73C365.82 372.49 366.1 372.6 369.64 371.24Z" id="d13WsT2Cjs"></path><path d="M369.64 371.24C374.27 369.53 374.27 369.53 370.27 374.98C368.48 377.16 367.14 380.64 367.07 382.51C367.05 385.85 367.24 385.76 369.43 382.15C375.8 372.18 379.86 362.44 381.79 352.84C383.03 347.11 383.49 342.19 382.94 341.98C382.25 341.71 379.02 347.64 375.53 355.05C372 362.6 368.34 369.64 367.45 370.73C365.82 372.49 366.1 372.6 369.64 371.24Z" id="dfRizVf5k"></path><path d="M324.45 350.08C325.07 341.41 324.75 340.18 322.79 341.97C315.98 348.11 313.64 357.54 317.42 364.25C320.08 368.94 323.54 361.99 324.45 350.08Z" id="cvbLQhKuG"></path><path d="M324.45 350.08C325.07 341.41 324.75 340.18 322.79 341.97C315.98 348.11 313.64 357.54 317.42 364.25C320.08 368.94 323.54 361.99 324.45 350.08Z" id="av3fyxOfq"></path><path d="M377.85 567.9C375.75 569.64 374.89 571.06 375.93 570.83C376.92 570.73 380.17 568.48 382.92 565.87C385.81 563.31 388.93 561.01 389.97 560.78C391.15 560.6 391.74 559.07 391.7 555.87C391.67 553.47 392.3 545.6 393.27 538.49C394.97 525.78 394.38 519.02 392.15 524.85C391.51 526.52 390.08 533.13 388.9 539.52C386.21 554.4 382.7 563.55 377.85 567.9Z" id="figXxluo1"></path><path d="M377.85 567.9C375.75 569.64 374.89 571.06 375.93 570.83C376.92 570.73 380.17 568.48 382.92 565.87C385.81 563.31 388.93 561.01 389.97 560.78C391.15 560.6 391.74 559.07 391.7 555.87C391.67 553.47 392.3 545.6 393.27 538.49C394.97 525.78 394.38 519.02 392.15 524.85C391.51 526.52 390.08 533.13 388.9 539.52C386.21 554.4 382.7 563.55 377.85 567.9Z" id="aqhEtFXKa"></path><path d="M380.99 579.61C381.78 578.8 382.81 579.03 383.56 579.96C384.94 581.76 383.22 585.4 378.59 591.26C375.91 594.53 377.32 595.38 382.76 593.65C386.71 592.47 386.77 592.32 389.04 580.63C390.27 574.1 391.4 568.65 391.38 568.31C391.76 566.87 388.22 567.43 386.01 569.44C382 572.83 377.3 580.1 378.68 580.63C379.38 580.9 380.35 580.47 380.99 579.61Z" id="brYH4xmLt"></path><path d="M380.99 579.61C381.78 578.8 382.81 579.03 383.56 579.96C384.94 581.76 383.22 585.4 378.59 591.26C375.91 594.53 377.32 595.38 382.76 593.65C386.71 592.47 386.77 592.32 389.04 580.63C390.27 574.1 391.4 568.65 391.38 568.31C391.76 566.87 388.22 567.43 386.01 569.44C382 572.83 377.3 580.1 378.68 580.63C379.38 580.9 380.35 580.47 380.99 579.61Z" id="b31O4D5J1n"></path></defs><g><g><g><g><use xlink:href="#a2zv1GErlh" opacity="1" fill="#000000" fill-opacity="1"></use><g><use xlink:href="#a2zv1GErlh" opacity="1" fill-opacity="0" stroke="#000000" stroke-width="1" stroke-opacity="0"></use></g></g><g><use xlink:href="#c4Y1D6VYv" opacity="1" fill="#000000" fill-opacity="0"></use><g><use xlink:href="#c4Y1D6VYv" opacity="1" fill-opacity="0" stroke="#000000" stroke-width="1" stroke-opacity="0"></use></g></g><g><use xlink:href="#a2342OXQoc" opacity="1" fill="#000000" fill-opacity="1"></use><g><use xlink:href="#a2342OXQoc" opacity="1" fill-opacity="0" stroke="#000000" stroke-width="1" stroke-opacity="0"></use></g></g><g><use xlink:href="#b2M7UsL7tk" opacity="1" fill="#000000" fill-opacity="0"></use><g><use xlink:href="#b2M7UsL7tk" opacity="1" fill-opacity="0" stroke="#000000" stroke-width="1" stroke-opacity="0"></use></g></g><g><use xlink:href="#c1ScQYlT3Q" opacity="1" fill="#000000" fill-opacity="1"></use><g><use xlink:href="#c1ScQYlT3Q" opacity="1" fill-opacity="0" stroke="#000000" stroke-width="1" stroke-opacity="0"></use></g></g><g><use xlink:href="#eS5oC5KSv" opacity="1" fill="#000000" fill-opacity="0"></use><g><use xlink:href="#eS5oC5KSv" opacity="1" fill-opacity="0" stroke="#000000" stroke-width="1" stroke-opacity="0"></use></g></g><g><use xlink:href="#c22FA3EhQG" opacity="1" fill="#000000" fill-opacity="1"></use><g><use xlink:href="#c22FA3EhQG" opacity="1" fill-opacity="0" stroke="#000000" stroke-width="1" stroke-opacity="0"></use></g></g><g><use xlink:href="#d1vdSgeEVZ" opacity="1" fill="#000000" fill-opacity="0"></use><g><use xlink:href="#d1vdSgeEVZ" opacity="1" fill-opacity="0" stroke="#000000" stroke-width="1" stroke-opacity="0"></use></g></g><g><use xlink:href="#b2iSY9uo7a" opacity="1" fill="#000000" fill-opacity="1"></use><g><use xlink:href="#b2iSY9uo7a" opacity="1" fill-opacity="0" stroke="#000000" stroke-width="1" stroke-opacity="0"></use></g></g><g><use xlink:href="#b2pP2JV2Ll" opacity="1" fill="#000000" fill-opacity="0"></use><g><use xlink:href="#b2pP2JV2Ll" opacity="1" fill-opacity="0" stroke="#000000" stroke-width="1" stroke-opacity="0"></use></g></g><g><use xlink:href="#d13WsT2Cjs" opacity="1" fill="#000000" fill-opacity="1"></use><g><use xlink:href="#d13WsT2Cjs" opacity="1" fill-opacity="0" stroke="#000000" stroke-width="1" stroke-opacity="0"></use></g></g><g><use xlink:href="#dfRizVf5k" opacity="1" fill="#000000" fill-opacity="0"></use><g><use xlink:href="#dfRizVf5k" opacity="1" fill-opacity="0" stroke="#000000" stroke-width="1" stroke-opacity="0"></use></g></g><g><use xlink:href="#cvbLQhKuG" opacity="1" fill="#000000" fill-opacity="1"></use><g><use xlink:href="#cvbLQhKuG" opacity="1" fill-opacity="0" stroke="#000000" stroke-width="1" stroke-opacity="0"></use></g></g><g><use xlink:href="#av3fyxOfq" opacity="1" fill="#000000" fill-opacity="0"></use><g><use xlink:href="#av3fyxOfq" opacity="1" fill-opacity="0" stroke="#000000" stroke-width="1" stroke-opacity="0"></use></g></g><g><use xlink:href="#figXxluo1" opacity="1" fill="#000000" fill-opacity="1"></use><g><use xlink:href="#figXxluo1" opacity="1" fill-opacity="0" stroke="#000000" stroke-width="1" stroke-opacity="0"></use></g></g><g><use xlink:href="#aqhEtFXKa" opacity="1" fill="#000000" fill-opacity="0"></use><g><use xlink:href="#aqhEtFXKa" opacity="1" fill-opacity="0" stroke="#000000" stroke-width="1" stroke-opacity="0"></use></g></g><g><use xlink:href="#brYH4xmLt" opacity="1" fill="#000000" fill-opacity="1"></use><g><use xlink:href="#brYH4xmLt" opacity="1" fill-opacity="0" stroke="#000000" stroke-width="1" stroke-opacity="0"></use></g></g><g><use xlink:href="#b31O4D5J1n" opacity="1" fill="#000000" fill-opacity="0"></use><g><use xlink:href="#b31O4D5J1n" opacity="1" fill-opacity="0" stroke="#000000" stroke-width="1" stroke-opacity="0"></use></g></g></g></g></g></svg>