<?xml version="1.0" encoding="UTF-8"?>
<svg viewBox="0 0 187.5 187.5" xmlns="http://www.w3.org/2000/svg">
 <g transform="matrix(.72973 0 0 .72973 344.49 -241.23)">
  <path d="m-359.12 443.12-9.9141 6.0469-29.531-15.367c-11.016-4.828-16.523-10.805-16.523-17.93-1e-5 -3.7968 1.4062-9.0077 4.2188-11.633 2.8594-2.6249 6.3047-3.9374 10.336-3.9375 5.7656 1.1e-4 10.828 1.9454 15.188 5.8359 4.3124 3.8907 6.4687 8.4142 6.4688 13.57-5e-5 0.37509-0.0938 1.6642-0.28125 3.8672l-0.07032 1.6172c-0.09379 1.0313-0.14067 1.8048-0.14062 2.3203-5e-5 3.3751 2.6718 6.2813 8.0156 8.7188 0.93745 0.46882 1.8515 0.961 2.7422 1.4766l9.4922 5.4141"/>
  <path d="m-373.61 456.34 72.048-44.14c1.3592-0.1874 6.1042-2.2559 11.766-3.2434 6.3724-1.1114 12.373-1.1793 18.702 1.3987l-84.445 49.008c-2.6251 1.5469-4.4298 2.5079-5.4141 2.8828l-1.5469 0.5625c-4.0313 1.5-6.0469 4.1953-6.0469 8.0859v0.63282l0.14063 1.7578 0.21094 3.4453c0.32806 6.375-3.1172 12.563-10.336 18.562-7.2188 6.0469-14.813 9.0703-22.781 9.0703-4.0313 0-7.336-1.0078-9.9141-3.0234-2.5781-2.0625-7.8672-8.6641-7.8672-11.805-1e-5 -4.0781 4.0078-8.625 12.023-13.641 0 0 33.555-18.898 33.461-19.555"/>
  <path d="m-350.76 460.77 10.828-6.4688 68.836 39.516c-5.7658 2.3438-8.3114 2.0346-13.561 2.0345-2.1095 1e-5 -8.8262 0.7999-13.732-1.0562l-52.371-34.025"/>
  <path d="m-400.56 424.27 3.0081 1.4734c2.7012 1.2688 4.8907 1.9032 6.5688 1.9031 3.2741 7e-5 4.9112-2.2918 4.9112-6.8757-3e-5 -3.3559-1.5143-6.4459-4.5429-9.2699s-6.3642-4.2358-10.007-4.2359c-2.1691 9e-5 -4.0518 0.75724-5.6479 2.2714-1.5552 1.5144-2.3328 3.3152-2.3328 5.4024-2e-5 3.4789 2.6807 6.5893 8.0421 9.3313" fill="#fff"/>
  <path d="m-404.84 482.56c-4.9219 3.0938-5.9018 6.2828-5.9017 8.5796-2e-5 1.875 0.74998 3.2813 2.25 4.2188s3.75 1.4063 6.75 1.4062c6.1875 1e-5 12.258-2.414 18.211-7.2422s8.9296-9.75 8.9297-14.766c-5e-5 -3.375-4.9325-4.5688-7.8855-4.5688" fill="#fff"/>
  <path d="m-355.61 455.64c2.2968 5e-5 3.4452-1.1015 3.4453-3.3047s-1.1485-3.3046-3.4453-3.3047c-2.2501 5e-5 -3.3751 1.1016-3.375 3.3047s1.1249 3.3047 3.375 3.3047"/>
 </g>
</svg>
