<?xml version="1.0" encoding="UTF-8"?>
<svg version="1.1" viewBox="0 0 765 990" xmlns="http://www.w3.org/2000/svg">
 <defs>
  <filter id="a" color-interpolation-filters="sRGB">
   <feGaussianBlur stdDeviation="2.6717241"/>
  </filter>
 </defs>
 <g transform="translate(0 -62.362)">
  <path transform="matrix(4.4253 0 0 4.4253 998.89 -1567.4)" d="m-225.07 373.65v10.996 197.1 10.996h11.231 125.89 20.867c6.2199 0 11.207-4.9062 11.207-10.996v-197.1c0-6.0903-4.9876-10.996-11.207-10.996h-20.867-125.89-11.231z" fill="#b3b3b3" filter="url(#a)" opacity=".59346" stroke="#979797" stroke-width=".80228"/>
  <path d="m11.084 72.444v48.663 872.23 48.663h49.699 557.12 92.342c27.525 0 49.597-21.711 49.597-48.663v-872.23c0-26.952-22.072-48.663-49.597-48.663h-92.342-557.12-49.699z" fill="#fff" stroke="#979797" stroke-width="3.5504"/>
  <path d="m10.143 182.56h750.64" color="#000000" fill="#00f" stroke="#01f" stroke-width="1.6689px"/>
  <path d="m10.143 229.33h750.64" fill="#00f" stroke="#01f" stroke-width="1.6689px"/>
  <path d="m10.143 277.12h750.64" fill="#00f" stroke="#01f" stroke-width="1.6689px"/>
  <path d="m10.143 324.91h750.64" fill="#00f" stroke="#01f" stroke-width="1.6689px"/>
  <path d="m10.143 372.7h750.64" fill="#00f" stroke="#01f" stroke-width="1.6689px"/>
  <path d="m10.143 420.49h750.64" fill="#00f" stroke="#01f" stroke-width="1.6689px"/>
  <path d="m10.143 468.28h750.64" fill="#00f" stroke="#01f" stroke-width="1.6689px"/>
  <path d="m10.143 516.07h750.64" fill="#00f" stroke="#01f" stroke-width="1.6689px"/>
  <path d="m10.143 563.86h750.64" fill="#00f" stroke="#01f" stroke-width="1.6689px"/>
  <path d="m10.143 611.65h750.64" fill="#00f" stroke="#01f" stroke-width="1.6689px"/>
  <path d="m10.143 659.45h750.64" fill="#00f" stroke="#01f" stroke-width="1.6689px"/>
  <path d="m10.143 707.24h750.64" fill="#00f" stroke="#01f" stroke-width="1.6689px"/>
  <path d="m10.143 755.03h750.64" fill="#00f" stroke="#01f" stroke-width="1.6689px"/>
  <path d="m10.143 802.82h750.64" fill="#00f" stroke="#01f" stroke-width="1.6689px"/>
  <path d="m10.143 850.61h750.64" fill="#00f" stroke="#01f" stroke-width="1.6689px"/>
  <path d="m10.143 898.4h750.64" fill="#00f" stroke="#01f" stroke-width="1.6689px"/>
  <path d="m10.143 946.19h750.64" fill="#00f" stroke="#01f" stroke-width="1.6689px"/>
  <path d="m10.143 993.98h750.64" fill="#00f" stroke="#01f" stroke-width="1.6689px"/>
  <path transform="matrix(-.60548 0 0 -.46126 65.669 808.19)" d="m40.439 471.52a21.445 28.184 0 1 1 -42.889 0 21.445 28.184 0 1 1 42.889 0z" color="#000000" fill="#acacac" fill-opacity=".32549" stroke="#030000" stroke-width=".80228"/>
  <path d="m106.09 71.503v968.48" color="#000000" fill="#00f" stroke="#f00" stroke-width="1.6894px"/>
  <path transform="matrix(-.60548 0 0 -.46126 65.669 466.26)" d="m40.439 471.52a21.445 28.184 0 1 1 -42.889 0 21.445 28.184 0 1 1 42.889 0z" color="#000000" fill="#acacac" fill-opacity=".32549" stroke="#030000" stroke-width=".80228"/>
  <path transform="matrix(-.60548 0 0 -.46126 65.669 1189.4)" d="m40.439 471.52a21.445 28.184 0 1 1 -42.889 0 21.445 28.184 0 1 1 42.889 0z" color="#000000" fill="#e4e4e4" stroke="#030000" stroke-width=".80228"/>
 </g>
</svg>
